<svg width="625" height="159" viewBox="0 0 625 159" fill="none" xmlns="http://www.w3.org/2000/svg">
<path d="M488.405 158C482.11 158 477.059 155.967 473.252 151.902C469.446 147.837 466.738 141.521 465.127 132.955L441.19 10.7794C440.897 9.32755 440.751 8.31123 440.751 7.73049C440.751 3.37484 443.24 1.19702 448.218 1.19702C451.292 1.19702 453.488 1.85037 454.806 3.15706C456.123 4.46376 457.002 6.42379 457.441 9.03717L480.719 133.391C481.451 137.456 482.403 140.287 483.574 141.884C484.745 143.336 486.429 144.062 488.625 144.062C490.967 144.062 492.724 143.263 493.895 141.666C495.067 139.924 495.945 137.238 496.531 133.608L513.99 34.7019C515.015 28.0233 516.803 21.8871 520.024 18.5478C523.391 15.0633 528.172 12.5648 533.296 12.5648C543.837 12.5648 549.949 21.1995 551.999 34.7019L569.22 133.608C569.805 137.383 570.684 140.069 571.855 141.666C573.026 143.263 574.783 144.062 577.126 144.062C579.175 144.062 580.786 143.263 581.957 141.666C583.275 140.069 584.299 137.311 585.031 133.391L608.31 9.03717C608.749 6.2786 609.627 4.31857 610.945 3.15706C612.409 1.85037 614.605 1.19702 617.533 1.19702C622.511 1.19702 625 3.37484 625 7.73049C625 8.31123 624.853 9.32755 624.56 10.7794L600.623 132.955C599.013 141.086 596.378 147.329 592.718 151.684C589.204 155.895 584.08 158 577.345 158C571.05 158 566.072 155.967 562.412 151.902C558.898 147.837 556.483 141.594 555.165 133.173L538.123 35.3002C537.684 32.3965 537.191 30.4787 536.313 29.3172C535.581 28.0105 534.011 26.924 532.693 26.924C531.229 26.924 530.555 27.4122 529.676 28.7189C528.944 29.8804 528.306 32.3965 527.867 35.3002L510.585 133.173C509.268 141.594 506.779 147.837 503.119 151.902C499.605 155.967 494.701 158 488.405 158Z" fill="white"/>
<path d="M293.663 74.3606C279.907 84.2826 272.668 102.931 278.218 123.253C281.959 128.872 286.544 133.892 291.853 138.315C308.986 152.421 333.36 160.192 359.302 157.681C361.353 157.562 363.525 157.203 365.455 156.964C336.618 154.334 311.762 138.913 299.816 117.037C296.196 110.223 293.663 102.931 292.697 95.1609C291.853 87.9884 292.215 80.9354 293.663 74.3606Z" fill="url(#paint0_linear_401_1865)"/>
<path d="M353.188 63.3297C353.068 63.2095 353.068 63.2095 352.949 63.0893C352.829 62.9691 352.589 62.9691 352.469 62.8489C315.544 40.0083 273.463 64.4116 273.943 102.159C273.823 108.29 274.902 114.781 277.299 121.513C277.399 121.793 277.398 121.71 277.539 121.994C277.779 122.475 278.139 122.956 278.498 123.436C272.864 103.12 280.057 84.2469 293.724 74.2691C305.233 65.8542 312.546 64.051 324.535 67.0563C325.614 67.2968 326.693 67.6574 327.652 68.018C327.772 68.1383 335.685 71.2638 340.121 76.0723C342.758 78.9575 344.197 80.5202 345.755 81.2415C345.755 81.2415 345.755 81.2415 345.875 81.2415C346.115 81.3617 346.355 81.4819 346.594 81.4819C346.954 81.6022 347.314 81.7224 347.793 81.7224C348.153 81.8426 348.513 81.8426 348.872 81.8426H348.992H349.112H349.232C350.311 81.8426 351.63 81.7224 352.949 81.2415C354.747 80.6405 356.066 79.799 356.905 78.9575C356.905 78.9575 356.905 78.9575 357.025 78.8373C357.744 78.2362 357.984 77.7553 357.984 77.7553C361.461 73.3074 358.224 67.0563 353.188 63.3297Z" fill="url(#paint1_linear_401_1865)"/>
<path d="M422.391 41.4347C422.03 40.9549 421.548 40.3552 421.186 39.7554C420.463 39.0357 419.739 38.0761 419.137 37.2364C419.016 37.2364 419.016 37.2364 419.016 37.2364C418.775 36.9965 418.654 36.7566 418.413 36.5167C407.444 23.5618 395.028 14.5653 382.009 8.80762C381.527 8.68767 381.045 8.44776 380.562 8.20786C380.321 8.0879 380.08 8.0879 379.839 7.96795C359.829 -0.18883 338.854 -0.548687 320.29 5.44895C319.687 5.5689 319.085 5.8088 318.482 6.04871C318.241 6.04871 317.879 6.16866 317.638 6.28861C298.351 13.2459 282.319 27.1604 273.519 45.9929C273.278 46.5927 273.037 47.0725 272.796 47.6723C272.675 47.9122 272.554 48.272 272.434 48.512C272.072 49.2317 271.831 49.9514 271.59 50.7911C271.47 51.031 271.349 51.2709 271.349 51.5108C271.228 51.6307 271.228 51.8706 271.108 52.1105C270.987 52.2305 270.987 52.3504 270.987 52.4704C270.987 52.5903 270.867 52.5903 270.867 52.7103C270.746 52.8302 270.746 53.0702 270.626 53.3101C270.505 53.6699 270.385 54.0298 270.264 54.3896C268.456 60.0274 267.371 65.9051 266.889 72.2626C266.889 72.2626 266.889 72.2626 266.889 72.3825C266.648 76.341 266.648 80.4194 266.889 84.7377C267.009 85.2175 267.009 85.6973 267.009 86.1771C267.13 86.6569 267.13 87.1367 267.13 87.6165C267.25 88.4562 267.371 89.4158 267.492 90.3754C267.612 90.7353 267.612 90.9752 267.612 91.3351C267.853 92.5346 267.974 93.7341 268.215 95.0536C268.215 95.2935 268.335 95.5334 268.335 95.8933C268.335 96.2531 268.456 96.493 268.576 96.8529C268.818 98.2923 269.179 99.6118 269.42 101.051C269.541 101.291 269.541 101.531 269.661 101.891C269.541 101.411 269.42 100.931 269.3 100.451C268.576 97.3327 268.094 94.2139 267.612 91.2151C267.492 90.1355 267.371 89.1759 267.25 88.0963C266.648 82.3386 266.768 76.9407 267.25 71.7828C267.612 68.544 268.094 65.3053 268.818 62.3065C268.938 61.7067 269.059 60.987 269.3 60.3873C269.3 60.1474 269.42 60.0274 269.42 59.7875C284.006 7.12828 355.127 -7.38599 396.836 49.5915L397.8 51.031C397.8 51.031 397.077 49.7115 396.836 49.1117C392.617 39.9953 402.743 37.5963 409.252 45.3932C418.413 56.4288 429.021 52.9502 422.391 41.4347Z" fill="url(#paint2_linear_401_1865)"/>
<path d="M401.301 56.0965C400.576 54.7857 397.91 50.7209 397.669 50.3634C363.025 2.57755 307.315 4.40076 281.241 36.5758C275.93 43.0108 272.02 50.8532 269.485 59.6715C269.364 59.9099 269.364 60.029 269.364 60.2674C269.243 60.8632 269.002 61.5782 268.881 62.174C268.157 65.1532 267.674 68.3707 267.312 71.5882C267.191 72.6607 267.191 73.8524 267.071 74.9249C267.071 75.8782 266.95 76.8316 266.95 77.7849C266.829 79.0957 266.731 80.2215 266.709 81.5982C266.686 82.975 267.431 96.7273 269.726 102.785C270.105 104.135 270.503 105.215 270.935 106.532C271.367 107.849 271.374 107.867 271.599 108.539C271.599 108.539 271.962 109.499 272.135 109.972C274.307 115.93 276.003 118.778 276.607 119.732C276.727 119.851 276.727 119.97 276.727 119.97C277.09 120.685 277.21 121.042 277.21 121.042C276.969 120.447 276.727 119.732 276.607 119.136C274.675 113.177 273.83 107.338 273.951 101.857C273.951 97.4474 274.434 93.2766 275.52 89.3441C283.487 59.5524 320.183 42.9882 353.016 63.0082C353.584 63.3542 353.653 63.5046 355.431 64.4382C357.483 65.8682 359.535 67.4174 361.587 69.2049C362.19 69.8007 365.208 72.7799 369.071 75.7591C371.364 77.6657 373.658 79.0957 376.072 80.1682C376.072 80.1682 376.072 80.1682 376.193 80.1682C376.434 80.2874 376.676 80.4066 376.917 80.4066C393.696 87.0799 410.716 73.7332 401.301 56.0965Z" fill="url(#paint3_linear_401_1865)"/>
<path d="M8.22723 157.781C5.70717 157.781 3.70596 157.046 2.22357 155.576C0.741191 153.958 0 151.753 0 148.959V27.6619C0 19.4284 2.44593 12.9592 7.33779 8.25432C12.3778 3.54946 19.345 1.19702 28.2394 1.19702H97.1702C102.952 1.19702 105.842 3.54946 105.842 8.25432C105.842 10.3127 105.101 11.93 103.619 13.1061C102.136 14.2824 99.9867 14.8705 97.1702 14.8705H28.4617C24.9041 14.8705 22.0134 16.0468 19.7898 18.3992C17.7145 20.7517 16.6768 23.8392 16.6768 27.6619V71.9905H80.2711C86.0523 71.9905 88.943 74.3429 88.943 79.0477C88.943 81.2532 88.1277 82.944 86.4971 84.1202C85.0147 85.2964 82.9393 85.8845 80.2711 85.8845H16.6768V148.959C16.6768 151.753 15.9356 153.958 14.4533 155.576C12.9709 157.046 10.8955 157.781 8.22723 157.781Z" fill="white"/>
<path d="M166.281 158C157.239 158 150.197 155.647 145.157 150.942C140.117 146.091 137.598 139.474 137.598 131.093V10.2374C137.598 7.44389 138.339 5.31199 139.821 3.84172C141.304 2.22442 143.305 1.41577 145.824 1.41577C148.493 1.41577 150.568 2.22442 152.051 3.84172C153.533 5.31199 154.274 7.44389 154.274 10.2374V131.534C154.274 135.357 155.312 138.445 157.388 140.797C159.611 143.15 162.502 144.326 166.059 144.326H240.104C245.886 144.326 248.776 146.605 248.776 151.162C248.776 153.368 248.035 155.059 246.553 156.235C245.07 157.411 242.92 158 240.104 158H166.281Z" fill="white"/>
<defs>
<linearGradient id="paint0_linear_401_1865" x1="314.819" y1="144.491" x2="366.77" y2="9.11441" gradientUnits="userSpaceOnUse">
<stop offset="0.125" stop-color="#0014FF"/>
<stop offset="1" stop-color="#FF3CDF"/>
</linearGradient>
<linearGradient id="paint1_linear_401_1865" x1="316.684" y1="46.6074" x2="288.417" y2="142.204" gradientUnits="userSpaceOnUse">
<stop stop-color="#0014FF"/>
<stop offset="1" stop-color="#FF3CDF"/>
</linearGradient>
<linearGradient id="paint2_linear_401_1865" x1="245.605" y1="62.6987" x2="415.312" y2="51.5086" gradientUnits="userSpaceOnUse">
<stop stop-color="#0014FF"/>
<stop offset="0.869806" stop-color="#FF3CDF"/>
</linearGradient>
<linearGradient id="paint3_linear_401_1865" x1="322.068" y1="4.85187" x2="328.068" y2="129.975" gradientUnits="userSpaceOnUse">
<stop stop-color="#0014FF"/>
<stop offset="0.677083" stop-color="#FF3CDF"/>
</linearGradient>
</defs>
</svg>
