<svg xmlns="http://www.w3.org/2000/svg" width="212.178" height="253.445" viewBox="0 0 212.178 253.445" fill="none">
  <path d="M 101.576 32.728 C 101.943 33.83 102.188 34.565 102.432 35.3 C 102.738 36.036 102.982 36.832 103.41 37.567 C 107.506 44.795 113.436 50.125 120.711 53.984 C 124.196 55.822 127.742 57.537 131.349 59.252 C 135.751 61.335 140.152 63.356 144.554 65.439 C 148.467 67.338 152.379 69.237 156.292 71.197 C 157.943 72.055 158.921 73.341 159.043 75.302 C 159.165 76.71 159.471 78.119 159.838 79.467 C 160.449 82.224 162.161 83.939 164.973 84.429 C 167.541 84.858 170.109 85.287 172.676 85.348 C 177.934 85.409 182.886 86.94 187.838 88.349 C 190.1 89.023 192.423 89.82 194.746 89.881 C 202.388 90.126 207.584 85.899 211.375 79.651 C 213.086 76.833 211.986 74.566 208.807 74.138 C 205.934 73.709 203.06 73.403 200.187 73.035 C 198.964 72.913 197.742 72.851 196.58 72.545 C 191.2 71.075 186.432 68.196 181.541 65.745 C 177.506 63.724 173.532 61.58 169.497 59.558 C 167.113 58.333 164.484 57.476 162.283 56.005 C 153.296 49.88 145.165 42.774 137.829 34.749 C 130.065 26.234 122.668 17.474 115.148 8.776 C 113.559 6.938 112.214 4.794 110.38 3.201 C 105.795 -0.842 97.174 -0.903 92.284 2.16 C 87.821 5.039 83.297 7.918 79.201 11.349 C 71.009 18.21 63.061 25.193 55.236 32.36 C 43.804 42.774 32.86 53.678 22.529 65.255 C 18.371 69.911 14.336 74.75 11.463 80.325 C 9.385 84.368 7.367 88.411 5.472 92.515 C 4.188 95.333 2.66 98.212 2.232 101.213 C 1.131 108.381 0.337 115.67 0.031 122.96 C -0.153 128.534 0.52 134.17 1.009 139.744 C 1.192 141.888 1.804 144.032 2.537 146.054 C 3.638 149.056 5.778 151.261 7.978 153.466 C 10.118 155.61 12.564 157.632 14.153 160.143 C 16.048 163.145 17.271 166.637 18.494 170.006 C 19.9 173.926 21.795 177.295 25.585 179.501 C 30.17 182.135 35.184 183.605 40.258 184.707 C 42.703 185.259 45.149 185.994 47.655 186.606 C 48.817 186.913 49.061 187.525 48.817 188.628 C 48.389 190.588 48.022 192.548 47.838 194.509 C 46.677 205.106 45.638 215.643 47.166 226.363 C 48.266 233.897 49.061 241.432 50.956 248.783 C 51.323 250.069 51.935 251.539 52.913 252.397 C 53.83 253.132 55.358 253.5 56.642 253.438 C 62.878 253.255 69.175 253.01 75.349 252.458 C 84.336 251.662 93.384 250.621 102.371 249.579 C 105.367 249.212 108.301 248.783 111.236 250.008 C 111.541 250.13 111.908 250.069 112.275 250.131 C 124.013 250.804 135.751 249.518 147.489 249.273 C 148.589 249.273 149.262 248.538 149.017 247.619 C 148.834 246.945 147.917 246.149 147.244 246.026 C 143.454 245.169 139.602 244.495 135.751 243.698 C 133.244 243.147 130.738 242.535 128.292 241.738 C 125.847 241.003 123.524 239.717 121.078 239.349 C 112.275 238.002 103.41 237.45 94.485 237.45 C 90.511 237.45 86.537 237.021 82.624 236.531 C 77.856 235.98 73.148 235.184 68.441 234.571 C 66.729 234.326 66.362 234.142 66.546 232.366 C 66.729 230.712 67.157 229.058 67.279 227.404 C 67.707 220.972 68.441 214.479 68.38 208.047 C 68.38 202.901 70.52 198.735 72.843 194.509 C 73.332 193.59 73.76 193.712 74.616 194.141 C 78.223 195.979 81.952 197.51 86.048 198.123 C 89.838 198.613 93.629 199.164 96.869 201.431 C 99.498 203.269 102.126 205.106 104.633 207.066 C 106.712 208.659 107.629 207.985 108.484 205.841 C 108.851 204.922 109.401 204.739 110.319 204.555 C 111.786 204.249 113.192 203.697 114.659 203.269 C 114.842 203.207 114.965 202.962 115.026 202.84 C 116.493 200.451 116.493 200.451 119.244 201.37 C 121.017 201.982 121.751 201.615 122.118 199.777 C 122.546 197.633 122.851 195.489 123.096 193.284 C 123.279 191.936 123.829 190.895 125.052 190.404 C 127.681 189.363 129.454 187.587 130.676 185.136 C 131.227 184.034 131.96 182.931 132.572 181.828 C 134.773 178.214 136.423 174.416 136.179 170.067 C 135.934 165.656 134.65 161.43 132.511 157.57 C 129.759 152.486 125.419 149.178 119.733 147.708 C 118.388 147.34 117.96 146.605 118.755 145.503 C 120.345 143.175 118.877 140.602 117.104 139.254 C 114.781 137.478 112.091 136.682 109.218 136.988 C 105.611 137.417 102.004 139.806 102.615 144.523 C 102.677 144.951 102.126 145.686 101.698 145.931 C 100.415 146.544 99.009 146.85 97.725 147.524 C 94.24 149.301 91.244 151.628 88.493 154.385 C 85.681 157.264 83.419 160.266 85.07 164.615 C 85.253 165.166 85.009 165.901 84.947 166.575 C 84.764 166.575 84.581 166.637 84.397 166.637 C 83.908 165.84 83.358 165.044 82.869 164.247 C 81.157 161.43 79.812 158.244 77.611 155.916 C 71.559 149.607 65.079 143.726 58.904 137.539 C 53.524 132.21 48.389 126.635 43.131 121.183 C 41.603 119.591 41.297 117.753 42.092 115.67 C 43.315 112.485 45.699 110.525 48.572 108.871 C 51.201 107.4 53.83 105.747 56.092 103.725 C 61.472 99.069 63.611 92.637 65.079 85.96 C 65.751 82.959 65.934 79.896 66.546 76.956 C 66.851 75.485 67.279 73.893 68.135 72.729 C 71.681 67.951 75.288 63.234 79.078 58.701 C 85.192 51.35 91.489 44.183 97.725 36.893 C 99.009 35.484 100.17 34.259 101.576 32.728 Z" fill="currentColor" fill-rule="nonzero"></path>
</svg>