<svg xmlns="http://www.w3.org/2000/svg" width="2642.318" height="687.071" viewBox="0 0 2642.318 687.071" fill="none">
  <path d="M 35.282 687.071 C 24.475 687.071 15.893 683.89 9.536 677.528 C 3.179 670.531 0 660.988 0 648.901 L 0 124.054 C 0 88.429 10.489 60.437 31.467 40.079 C 53.081 19.721 82.96 9.543 121.102 9.543 L 416.705 9.543 C 441.498 9.543 453.894 19.721 453.894 40.079 C 453.894 48.986 450.715 55.984 444.358 61.073 C 438.001 66.162 428.784 68.707 416.705 68.707 L 122.056 68.707 C 106.799 68.707 94.402 73.797 84.867 83.975 C 75.967 94.154 71.517 107.514 71.517 124.054 L 71.517 315.862 L 344.235 315.862 C 369.027 315.862 381.423 326.041 381.423 346.398 C 381.423 355.941 377.927 363.257 370.934 368.346 C 364.577 373.436 355.677 375.981 344.235 375.981 L 71.517 375.981 L 71.517 648.901 C 71.517 660.988 68.338 670.531 61.981 677.528 C 55.624 683.89 46.724 687.071 35.282 687.071 Z" fill="currentColor" fill-rule="nonzero"></path>
  <path d="M 707.853 677.528 C 669.075 677.528 638.879 667.35 617.265 646.992 C 595.651 625.998 584.844 597.37 584.844 561.108 L 584.844 38.171 C 584.844 26.083 588.023 16.859 594.38 10.497 C 600.737 3.499 609.319 0 620.126 0 C 631.569 0 640.469 3.499 646.826 10.497 C 653.183 16.859 656.361 26.083 656.361 38.171 L 656.361 563.017 C 656.361 579.557 660.811 592.917 669.711 603.096 C 679.247 613.275 691.643 618.364 706.9 618.364 L 1024.435 618.364 C 1049.228 618.364 1061.624 628.225 1061.624 647.946 C 1061.624 657.489 1058.445 664.805 1052.088 669.894 C 1045.731 674.984 1036.513 677.528 1024.435 677.528 L 707.853 677.528 Z" fill="currentColor" fill-rule="nonzero"></path>
  <path d="M 1423.745 687.071 C 1359.539 687.071 1301.69 673.075 1250.197 645.083 C 1198.705 616.456 1158.02 576.058 1128.142 523.892 C 1098.899 471.725 1084.278 411.606 1084.278 343.536 C 1084.278 274.828 1098.899 214.71 1128.142 163.179 C 1158.02 111.013 1198.705 70.934 1250.197 42.942 C 1301.69 14.314 1359.539 0 1423.745 0 C 1487.951 0 1545.801 14.314 1597.293 42.942 C 1648.785 70.934 1689.152 111.013 1718.395 163.179 C 1748.273 214.71 1763.212 274.828 1763.212 343.536 C 1763.212 411.606 1748.273 471.725 1718.395 523.892 C 1689.152 576.058 1648.785 616.456 1597.293 645.083 C 1545.801 673.075 1487.951 687.071 1423.745 687.071 Z M 1423.745 625.998 C 1475.237 625.998 1521.008 614.865 1561.057 592.599 C 1601.743 570.333 1633.528 538.206 1656.413 496.218 C 1679.935 453.594 1691.695 402.7 1691.695 343.536 C 1691.695 283.735 1679.617 232.523 1655.46 189.899 C 1631.939 147.275 1599.518 115.148 1558.197 93.518 C 1517.512 71.888 1472.059 61.073 1421.838 61.073 C 1370.981 61.073 1325.211 72.206 1284.526 94.472 C 1244.476 116.738 1213.009 149.184 1190.123 191.807 C 1167.238 234.431 1155.795 285.007 1155.795 343.536 C 1155.795 402.7 1167.238 453.594 1190.123 496.218 C 1213.644 538.206 1245.43 570.333 1285.479 592.599 C 1326.164 614.865 1372.253 625.998 1423.745 625.998 Z" fill="currentColor" fill-rule="nonzero"></path>
  <path d="M 2049.205 687.071 C 2021.87 687.071 1999.938 678.165 1983.409 660.352 C 1966.881 642.539 1955.12 614.865 1948.128 577.331 L 1844.19 41.988 C 1842.918 35.626 1842.283 31.173 1842.283 28.628 C 1842.283 9.543 1853.09 0 1874.704 0 C 1888.054 0 1897.589 2.863 1903.311 8.588 C 1909.032 14.314 1912.846 22.902 1914.753 34.354 L 2015.83 579.239 C 2019.009 597.052 2023.141 609.458 2028.227 616.455 C 2033.312 622.817 2040.623 625.998 2050.158 625.998 C 2060.33 625.998 2067.958 622.499 2073.044 615.501 C 2078.13 607.867 2081.944 596.098 2084.487 580.193 L 2159.818 88.747 C 2164.268 59.483 2173.485 37.534 2187.471 22.902 C 2202.092 7.634 2220.528 0 2242.777 0 C 2288.548 0 2315.883 29.582 2324.783 88.747 L 2400.115 580.193 C 2402.657 596.734 2406.472 608.503 2411.557 615.501 C 2416.643 622.499 2424.271 625.998 2434.443 625.998 C 2443.343 625.998 2450.335 622.499 2455.421 615.501 C 2461.142 608.503 2465.592 596.416 2468.771 579.239 L 2569.848 34.354 C 2571.755 22.266 2575.569 13.678 2581.291 8.588 C 2587.648 2.863 2597.183 0 2609.897 0 C 2631.511 0 2642.318 9.543 2642.318 28.628 C 2642.318 31.173 2641.683 35.626 2640.411 41.988 L 2536.474 577.331 C 2529.481 612.956 2518.038 640.312 2502.145 659.397 C 2486.888 677.847 2464.639 687.071 2435.396 687.071 C 2408.061 687.071 2386.447 678.165 2370.554 660.352 C 2355.297 642.539 2344.808 615.183 2339.087 578.285 L 2264.709 96.381 C 2262.802 83.657 2259.941 74.751 2256.127 69.661 C 2252.949 63.936 2248.499 61.073 2242.777 61.073 C 2236.42 61.073 2231.335 63.936 2227.521 69.661 C 2224.342 74.751 2221.799 83.657 2219.892 96.381 L 2145.514 578.285 C 2139.793 615.183 2128.986 642.539 2113.094 660.352 C 2097.836 678.165 2076.54 687.071 2049.205 687.071 Z" fill="currentColor" fill-rule="nonzero"></path>
  <path d="M 9.536 677.528 L 8.795 678.201 L 8.811 678.218 L 8.828 678.235 L 9.536 677.528 Z M 31.467 40.079 L 30.782 39.351 L 30.776 39.356 L 30.771 39.361 L 31.467 40.079 Z M 444.358 61.073 L 443.733 60.292 L 443.733 60.292 L 444.358 61.073 Z M 84.867 83.975 L 84.137 83.292 L 84.125 83.304 L 84.114 83.317 L 84.867 83.975 Z M 71.517 315.862 L 70.517 315.862 L 70.517 316.862 L 71.517 316.862 L 71.517 315.862 Z M 370.934 368.346 L 370.346 367.538 L 370.327 367.551 L 370.309 367.566 L 370.934 368.346 Z M 71.517 375.981 L 71.517 374.981 L 70.517 374.981 L 70.517 375.981 L 71.517 375.981 Z M 61.981 677.528 L 62.689 678.235 L 62.706 678.218 L 62.722 678.201 L 61.981 677.528 Z M 617.265 646.992 L 616.569 647.709 L 616.574 647.715 L 616.58 647.72 L 617.265 646.992 Z M 594.38 10.497 L 595.087 11.204 L 595.104 11.187 L 595.12 11.169 L 594.38 10.497 Z M 646.826 10.497 L 646.085 11.169 L 646.101 11.187 L 646.118 11.204 L 646.826 10.497 Z M 669.711 603.096 L 668.958 603.754 L 668.97 603.767 L 668.981 603.779 L 669.711 603.096 Z M 1250.197 645.083 L 1249.711 645.958 L 1249.72 645.962 L 1250.197 645.083 Z M 1128.142 523.892 L 1127.27 524.381 L 1127.274 524.389 L 1128.142 523.892 Z M 1128.142 163.179 L 1127.274 162.682 L 1127.272 162.686 L 1128.142 163.179 Z M 1250.197 42.942 L 1250.675 43.821 L 1250.683 43.816 L 1250.197 42.942 Z M 1597.293 42.942 L 1596.807 43.816 L 1596.815 43.821 L 1597.293 42.942 Z M 1718.395 163.179 L 1717.522 163.668 L 1717.526 163.675 L 1717.53 163.681 L 1718.395 163.179 Z M 1718.395 523.892 L 1717.527 523.395 L 1717.522 523.403 L 1718.395 523.892 Z M 1597.293 645.083 L 1597.77 645.962 L 1597.779 645.957 L 1597.293 645.083 Z M 1561.057 592.599 L 1560.577 591.722 L 1560.572 591.725 L 1561.057 592.599 Z M 1656.413 496.218 L 1655.538 495.735 L 1655.535 495.739 L 1656.413 496.218 Z M 1655.46 189.899 L 1654.584 190.382 L 1654.59 190.392 L 1655.46 189.899 Z M 1558.197 93.518 L 1557.727 94.401 L 1557.733 94.404 L 1558.197 93.518 Z M 1284.526 94.472 L 1284.045 93.595 L 1284.04 93.598 L 1284.526 94.472 Z M 1190.123 191.807 L 1191.004 192.28 L 1191.004 192.28 L 1190.123 191.807 Z M 1190.123 496.218 L 1189.242 496.691 L 1189.246 496.699 L 1189.251 496.707 L 1190.123 496.218 Z M 1285.479 592.599 L 1284.993 593.473 L 1284.999 593.476 L 1285.479 592.599 Z M 1983.409 660.352 L 1982.676 661.032 L 1982.676 661.032 L 1983.409 660.352 Z M 1948.128 577.331 L 1949.111 577.147 L 1949.109 577.14 L 1948.128 577.331 Z M 1844.19 41.988 L 1845.172 41.797 L 1845.171 41.792 L 1844.19 41.988 Z M 1903.311 8.588 L 1904.018 7.882 L 1904.018 7.882 L 1903.311 8.588 Z M 1914.753 34.354 L 1913.767 34.518 L 1913.768 34.527 L 1913.77 34.536 L 1914.753 34.354 Z M 2015.83 579.239 L 2016.815 579.063 L 2016.814 579.057 L 2015.83 579.239 Z M 2028.227 616.455 L 2027.418 617.043 L 2027.431 617.062 L 2027.445 617.08 L 2028.227 616.455 Z M 2073.044 615.501 L 2073.853 616.089 L 2073.865 616.073 L 2073.876 616.056 L 2073.044 615.501 Z M 2084.487 580.193 L 2085.474 580.351 L 2085.475 580.345 L 2084.487 580.193 Z M 2159.818 88.747 L 2160.806 88.898 L 2160.806 88.897 L 2159.818 88.747 Z M 2187.471 22.902 L 2186.749 22.211 L 2186.748 22.211 L 2187.471 22.902 Z M 2324.783 88.747 L 2323.794 88.895 L 2323.795 88.898 L 2324.783 88.747 Z M 2400.115 580.193 L 2399.126 580.345 L 2399.126 580.345 L 2400.115 580.193 Z M 2411.557 615.501 L 2412.366 614.913 L 2412.366 614.913 L 2411.557 615.501 Z M 2455.421 615.501 L 2454.647 614.868 L 2454.629 614.89 L 2454.612 614.913 L 2455.421 615.501 Z M 2468.771 579.239 L 2467.787 579.057 L 2467.787 579.057 L 2468.771 579.239 Z M 2569.848 34.354 L 2570.831 34.536 L 2570.834 34.523 L 2570.836 34.509 L 2569.848 34.354 Z M 2581.291 8.588 L 2581.955 9.336 L 2581.96 9.331 L 2581.291 8.588 Z M 2640.411 41.988 L 2639.431 41.792 L 2639.43 41.797 L 2640.411 41.988 Z M 2536.474 577.331 L 2537.455 577.523 L 2537.455 577.521 L 2536.474 577.331 Z M 2502.145 659.397 L 2501.377 658.758 L 2501.375 658.76 L 2502.145 659.397 Z M 2370.554 660.352 L 2369.795 661.002 L 2369.801 661.01 L 2369.808 661.017 L 2370.554 660.352 Z M 2339.087 578.285 L 2338.099 578.437 L 2338.099 578.438 L 2339.087 578.285 Z M 2264.709 96.381 L 2263.72 96.529 L 2263.721 96.533 L 2264.709 96.381 Z M 2256.127 69.661 L 2255.253 70.147 L 2255.286 70.206 L 2255.327 70.261 L 2256.127 69.661 Z M 2227.521 69.661 L 2226.688 69.107 L 2226.68 69.119 L 2226.672 69.132 L 2227.521 69.661 Z M 2219.892 96.381 L 2220.88 96.533 L 2220.881 96.529 L 2219.892 96.381 Z M 2145.514 578.285 L 2146.502 578.438 L 2146.503 578.437 L 2145.514 578.285 Z M 2113.094 660.352 L 2112.347 659.686 L 2112.341 659.693 L 2112.334 659.701 L 2113.094 660.352 Z M 35.282 686.071 C 24.683 686.071 16.376 682.959 10.243 676.822 L 8.828 678.235 C 15.41 684.822 24.267 688.071 35.282 688.071 L 35.282 686.071 Z M 10.276 676.856 C 4.128 670.089 1 660.811 1 648.901 L -1 648.901 C -1 661.165 2.229 670.972 8.795 678.201 L 10.276 676.856 Z M 1 648.901 L 1 124.054 L -1 124.054 L -1 648.901 L 1 648.901 Z M 1 124.054 C 1 88.636 11.421 60.926 32.164 40.797 L 30.771 39.361 C 9.558 59.947 -1 88.221 -1 124.054 L 1 124.054 Z M 32.153 40.807 C 53.533 20.67 83.139 10.543 121.102 10.543 L 121.102 8.543 C 82.78 8.543 52.63 18.773 30.782 39.351 L 32.153 40.807 Z M 121.102 10.543 L 416.705 10.543 L 416.705 8.543 L 121.102 8.543 L 121.102 10.543 Z M 416.705 10.543 C 428.99 10.543 438.018 13.068 443.962 17.95 C 449.869 22.8 452.894 30.112 452.894 40.079 L 454.894 40.079 C 454.894 29.688 451.721 21.733 445.231 16.404 C 438.78 11.106 429.213 8.543 416.705 8.543 L 416.705 10.543 Z M 452.894 40.079 C 452.894 48.714 449.829 55.412 443.733 60.292 L 444.983 61.854 C 451.602 56.555 454.894 49.257 454.894 40.079 L 452.894 40.079 Z M 443.733 60.292 C 437.622 65.185 428.662 67.707 416.705 67.707 L 416.705 69.707 C 428.905 69.707 438.381 67.139 444.983 61.854 L 443.733 60.292 Z M 416.705 67.707 L 122.056 67.707 L 122.056 69.707 L 416.705 69.707 L 416.705 67.707 Z M 122.056 67.707 C 106.551 67.707 93.88 72.891 84.137 83.292 L 85.597 84.659 C 94.924 74.702 107.046 69.707 122.056 69.707 L 122.056 67.707 Z M 84.114 83.317 C 75.021 93.717 70.517 107.328 70.517 124.054 L 72.517 124.054 C 72.517 107.7 76.913 94.592 85.62 84.634 L 84.114 83.317 Z M 70.517 124.054 L 70.517 315.862 L 72.517 315.862 L 72.517 124.054 L 70.517 124.054 Z M 71.517 316.862 L 344.235 316.862 L 344.235 314.862 L 71.517 314.862 L 71.517 316.862 Z M 344.235 316.862 C 356.519 316.862 365.547 319.388 371.492 324.269 C 377.398 329.119 380.423 336.431 380.423 346.398 L 382.423 346.398 C 382.423 336.008 379.25 328.052 372.761 322.723 C 366.309 317.425 356.742 314.862 344.235 314.862 L 344.235 316.862 Z M 380.423 346.398 C 380.423 355.66 377.051 362.658 370.346 367.538 L 371.523 369.155 C 378.804 363.856 382.423 356.222 382.423 346.398 L 380.423 346.398 Z M 370.309 367.566 C 364.189 372.465 355.541 374.981 344.235 374.981 L 344.235 376.981 C 355.814 376.981 364.965 374.406 371.559 369.127 L 370.309 367.566 Z M 344.235 374.981 L 71.517 374.981 L 71.517 376.981 L 344.235 376.981 L 344.235 374.981 Z M 70.517 375.981 L 70.517 648.901 L 72.517 648.901 L 72.517 375.981 L 70.517 375.981 Z M 70.517 648.901 C 70.517 660.811 67.388 670.089 61.241 676.856 L 62.722 678.201 C 69.288 670.972 72.517 661.165 72.517 648.901 L 70.517 648.901 Z M 61.274 676.822 C 55.152 682.948 46.535 686.071 35.282 686.071 L 35.282 688.071 C 46.914 688.071 56.096 684.832 62.689 678.235 L 61.274 676.822 Z M 707.853 676.528 C 669.25 676.528 639.328 666.399 617.951 646.264 L 616.58 647.72 C 638.43 668.301 668.901 678.528 707.853 678.528 L 707.853 676.528 Z M 617.962 646.275 C 596.581 625.507 585.844 597.159 585.844 561.108 L 583.844 561.108 C 583.844 597.581 594.722 626.49 616.569 647.709 L 617.962 646.275 Z M 585.844 561.108 L 585.844 38.171 L 583.844 38.171 L 583.844 561.108 L 585.844 561.108 Z M 585.844 38.171 C 585.844 26.254 588.975 17.321 595.087 11.204 L 593.673 9.79 C 587.071 16.397 583.844 25.912 583.844 38.171 L 585.844 38.171 Z M 595.12 11.169 C 601.26 4.411 609.556 1 620.126 1 L 620.126 -1 C 609.082 -1 600.214 2.587 593.64 9.825 L 595.12 11.169 Z M 620.126 1 C 631.351 1 639.957 4.423 646.085 11.169 L 647.566 9.825 C 640.98 2.575 631.786 -1 620.126 -1 L 620.126 1 Z M 646.118 11.204 C 652.231 17.321 655.361 26.254 655.361 38.171 L 657.361 38.171 C 657.361 25.912 654.135 16.397 647.533 9.79 L 646.118 11.204 Z M 655.361 38.171 L 655.361 563.017 L 657.361 563.017 L 657.361 38.171 L 655.361 38.171 Z M 655.361 563.017 C 655.361 579.743 659.865 593.354 668.958 603.754 L 670.464 602.438 C 661.757 592.479 657.361 579.371 657.361 563.017 L 655.361 563.017 Z M 668.981 603.779 C 678.725 614.18 691.395 619.364 706.9 619.364 L 706.9 617.364 C 691.891 617.364 679.768 612.369 670.441 602.412 L 668.981 603.779 Z M 706.9 619.364 L 1024.435 619.364 L 1024.435 617.364 L 706.9 617.364 L 706.9 619.364 Z M 1024.435 619.364 C 1036.725 619.364 1045.758 621.813 1051.704 626.542 C 1057.606 631.237 1060.624 638.308 1060.624 647.946 L 1062.624 647.946 C 1062.624 637.863 1059.443 630.143 1052.949 624.977 C 1046.499 619.846 1036.937 617.364 1024.435 617.364 L 1024.435 619.364 Z M 1060.624 647.946 C 1060.624 657.244 1057.541 664.248 1051.463 669.114 L 1052.713 670.675 C 1059.349 665.362 1062.624 657.734 1062.624 647.946 L 1060.624 647.946 Z M 1051.463 669.114 C 1045.351 674.007 1036.392 676.528 1024.435 676.528 L 1024.435 678.528 C 1036.635 678.528 1046.111 675.961 1052.713 670.675 L 1051.463 669.114 Z M 1024.435 676.528 L 707.853 676.528 L 707.853 678.528 L 1024.435 678.528 L 1024.435 676.528 Z M 1423.745 686.071 C 1359.689 686.071 1302.007 672.11 1250.675 644.205 L 1249.72 645.962 C 1301.372 674.041 1359.388 688.071 1423.745 688.071 L 1423.745 686.071 Z M 1250.683 644.209 C 1199.354 615.672 1158.799 575.406 1129.01 523.395 L 1127.274 524.389 C 1157.241 576.71 1198.057 617.239 1249.711 645.957 L 1250.683 644.209 Z M 1129.014 523.403 C 1099.866 471.405 1085.278 411.459 1085.278 343.536 L 1083.278 343.536 C 1083.278 411.754 1097.932 472.045 1127.27 524.381 L 1129.014 523.403 Z M 1085.278 343.536 C 1085.278 274.974 1099.867 215.03 1129.012 163.673 L 1127.272 162.686 C 1097.932 214.389 1083.278 274.683 1083.278 343.536 L 1085.278 343.536 Z M 1129.01 163.676 C 1158.798 111.666 1199.35 71.721 1250.675 43.821 L 1249.72 42.063 C 1198.06 70.146 1157.242 110.359 1127.274 162.682 L 1129.01 163.676 Z M 1250.683 43.816 C 1302.014 15.278 1359.693 1 1423.745 1 L 1423.745 -1 C 1359.384 -1 1301.365 13.35 1249.711 42.068 L 1250.683 43.816 Z M 1423.745 1 C 1487.797 1 1545.476 15.278 1596.807 43.816 L 1597.779 42.068 C 1546.125 13.35 1488.106 -1 1423.745 -1 L 1423.745 1 Z M 1596.815 43.821 C 1648.138 71.72 1688.37 111.663 1717.522 163.668 L 1719.267 162.69 C 1689.934 110.363 1649.432 70.147 1597.77 42.063 L 1596.815 43.821 Z M 1717.53 163.681 C 1747.307 215.037 1762.212 274.977 1762.212 343.536 L 1764.212 343.536 C 1764.212 274.68 1749.239 214.383 1719.26 162.678 L 1717.53 163.681 Z M 1762.212 343.536 C 1762.212 411.456 1747.307 471.399 1717.527 523.395 L 1719.262 524.389 C 1749.238 472.052 1764.212 411.757 1764.212 343.536 L 1762.212 343.536 Z M 1717.522 523.403 C 1688.369 575.41 1648.135 615.673 1596.807 644.209 L 1597.779 645.957 C 1649.435 617.238 1689.935 576.706 1719.267 524.381 L 1717.522 523.403 Z M 1596.815 644.205 C 1545.483 672.11 1487.801 686.071 1423.745 686.071 L 1423.745 688.071 C 1488.102 688.071 1546.118 674.041 1597.77 645.962 L 1596.815 644.205 Z M 1423.745 626.998 C 1475.386 626.998 1521.328 615.831 1561.543 593.473 L 1560.572 591.725 C 1520.688 613.899 1475.089 624.998 1423.745 624.998 L 1423.745 626.998 Z M 1561.538 593.476 C 1602.396 571.115 1634.317 538.847 1657.292 496.697 L 1655.535 495.739 C 1632.739 537.564 1601.089 569.55 1560.577 591.722 L 1561.538 593.476 Z M 1657.289 496.701 C 1680.908 453.901 1692.695 402.833 1692.695 343.536 L 1690.695 343.536 C 1690.695 402.567 1678.962 453.288 1655.538 495.735 L 1657.289 496.701 Z M 1692.695 343.536 C 1692.695 283.6 1680.589 232.21 1656.33 189.406 L 1654.59 190.392 C 1678.645 232.836 1690.695 283.87 1690.695 343.536 L 1692.695 343.536 Z M 1656.335 189.416 C 1632.724 146.628 1600.163 114.357 1558.661 92.632 L 1557.733 94.404 C 1598.872 115.939 1631.154 147.922 1654.584 190.382 L 1656.335 189.416 Z M 1558.666 92.635 C 1517.824 70.921 1472.207 60.073 1421.838 60.073 L 1421.838 62.073 C 1471.91 62.073 1517.199 72.855 1557.727 94.401 L 1558.666 92.635 Z M 1421.838 60.073 C 1370.83 60.073 1324.892 71.241 1284.045 93.595 L 1285.006 95.35 C 1325.53 73.171 1371.133 62.073 1421.838 62.073 L 1421.838 60.073 Z M 1284.04 93.598 C 1243.813 115.963 1212.213 148.552 1189.242 191.334 L 1191.004 192.28 C 1213.804 149.815 1245.139 117.514 1285.011 95.346 L 1284.04 93.598 Z M 1189.242 191.334 C 1166.264 234.131 1154.795 284.877 1154.795 343.536 L 1156.795 343.536 C 1156.795 285.138 1168.212 234.731 1191.004 192.28 L 1189.242 191.334 Z M 1154.795 343.536 C 1154.795 402.829 1166.263 453.893 1189.242 496.691 L 1191.004 495.745 C 1168.213 453.296 1156.795 402.571 1156.795 343.536 L 1154.795 343.536 Z M 1189.251 496.707 C 1212.858 538.848 1244.773 571.112 1284.993 593.473 L 1285.965 591.725 C 1246.086 569.553 1214.431 537.564 1190.996 495.729 L 1189.251 496.707 Z M 1284.999 593.476 C 1325.847 615.831 1372.104 626.998 1423.745 626.998 L 1423.745 624.998 C 1372.402 624.998 1326.481 613.899 1285.959 591.722 L 1284.999 593.476 Z M 2049.205 686.071 C 2022.109 686.071 2000.457 677.254 1984.142 659.672 L 1982.676 661.032 C 1999.419 679.075 2021.63 688.071 2049.205 688.071 L 2049.205 686.071 Z M 1984.142 659.672 C 1967.797 642.055 1956.087 614.593 1949.111 577.147 L 1947.145 577.514 C 1954.154 615.137 1965.965 643.022 1982.676 661.032 L 1984.142 659.672 Z M 1949.109 577.14 L 1845.172 41.797 L 1843.208 42.178 L 1947.146 577.521 L 1949.109 577.14 Z M 1845.171 41.792 C 1843.898 35.425 1843.283 31.062 1843.283 28.628 L 1841.283 28.628 C 1841.283 31.284 1841.939 35.826 1843.209 42.184 L 1845.171 41.792 Z M 1843.283 28.628 C 1843.283 19.274 1845.925 12.432 1851.05 7.907 C 1856.198 3.361 1864.022 1 1874.704 1 L 1874.704 -1 C 1863.771 -1 1855.385 1.411 1849.726 6.407 C 1844.044 11.425 1841.283 18.897 1841.283 28.628 L 1843.283 28.628 Z M 1874.704 1 C 1887.952 1 1897.16 3.848 1902.603 9.295 L 1904.018 7.882 C 1898.018 1.878 1888.155 -1 1874.704 -1 L 1874.704 1 Z M 1902.603 9.295 C 1908.126 14.822 1911.88 23.186 1913.767 34.518 L 1915.74 34.189 C 1913.813 22.618 1909.938 13.806 1904.018 7.882 L 1902.603 9.295 Z M 1913.77 34.536 L 2014.847 579.421 L 2016.814 579.057 L 1915.736 34.171 L 1913.77 34.536 Z M 2014.846 579.415 C 2018.028 597.248 2022.189 609.849 2027.418 617.043 L 2029.036 615.868 C 2024.092 609.066 2019.99 596.856 2016.815 579.063 L 2014.846 579.415 Z M 2027.445 617.08 C 2032.754 623.721 2040.377 626.998 2050.158 626.998 L 2050.158 624.998 C 2040.869 624.998 2033.87 621.913 2029.008 615.831 L 2027.445 617.08 Z M 2050.158 626.998 C 2060.586 626.998 2068.544 623.394 2073.853 616.089 L 2072.235 614.913 C 2067.372 621.605 2060.074 624.998 2050.158 624.998 L 2050.158 626.998 Z M 2073.876 616.056 C 2079.08 608.244 2082.923 596.306 2085.474 580.351 L 2083.499 580.036 C 2080.964 595.89 2077.179 607.491 2072.212 614.947 L 2073.876 616.056 Z M 2085.475 580.345 L 2160.806 88.898 L 2158.829 88.595 L 2083.498 580.042 L 2085.475 580.345 Z M 2160.806 88.897 C 2165.239 59.747 2174.402 38.023 2188.194 23.593 L 2186.748 22.211 C 2172.569 37.046 2163.296 59.218 2158.829 88.596 L 2160.806 88.897 Z M 2188.193 23.594 C 2202.615 8.534 2220.784 1 2242.777 1 L 2242.777 -1 C 2220.271 -1 2201.569 6.734 2186.749 22.211 L 2188.193 23.594 Z M 2242.777 1 C 2265.426 1 2283.421 8.308 2296.872 22.865 C 2310.353 37.454 2319.361 59.421 2323.794 88.895 L 2325.772 88.598 C 2321.306 58.908 2312.196 36.502 2298.341 21.508 C 2284.458 6.483 2265.9 -1 2242.777 -1 L 2242.777 1 Z M 2323.795 88.898 L 2399.126 580.345 L 2401.103 580.042 L 2325.772 88.595 L 2323.795 88.898 Z M 2399.126 580.345 C 2401.675 596.922 2405.517 608.89 2410.748 616.089 L 2412.366 614.913 C 2407.427 608.116 2403.64 596.546 2401.103 580.041 L 2399.126 580.345 Z M 2410.748 616.089 C 2416.057 623.394 2424.015 626.998 2434.443 626.998 L 2434.443 624.998 C 2424.527 624.998 2417.229 621.605 2412.366 614.913 L 2410.748 616.089 Z M 2434.443 626.998 C 2443.652 626.998 2450.95 623.355 2456.23 616.089 L 2454.612 614.913 C 2449.721 621.644 2443.033 624.998 2434.443 624.998 L 2434.443 626.998 Z M 2456.195 616.134 C 2462.083 608.933 2466.568 596.636 2469.754 579.421 L 2467.787 579.057 C 2464.616 596.196 2460.202 608.074 2454.647 614.868 L 2456.195 616.134 Z M 2469.754 579.421 L 2570.831 34.536 L 2568.865 34.171 L 2467.787 579.057 L 2469.754 579.421 Z M 2570.836 34.509 C 2572.727 22.523 2576.484 14.203 2581.955 9.336 L 2580.626 7.841 C 2574.655 13.153 2570.783 22.01 2568.86 34.198 L 2570.836 34.509 Z M 2581.96 9.331 C 2588.062 3.836 2597.313 1 2609.897 1 L 2609.897 -1 C 2597.053 -1 2587.234 1.89 2580.621 7.845 L 2581.96 9.331 Z M 2609.897 1 C 2620.579 1 2628.403 3.361 2633.551 7.907 C 2638.676 12.432 2641.318 19.274 2641.318 28.628 L 2643.318 28.628 C 2643.318 18.897 2640.558 11.425 2634.875 6.407 C 2629.216 1.411 2620.83 -1 2609.897 -1 L 2609.897 1 Z M 2641.318 28.628 C 2641.318 31.062 2640.703 35.425 2639.431 41.792 L 2641.392 42.184 C 2642.663 35.826 2643.318 31.284 2643.318 28.628 L 2641.318 28.628 Z M 2639.43 41.797 L 2535.492 577.14 L 2537.455 577.521 L 2641.393 42.178 L 2639.43 41.797 Z M 2535.492 577.138 C 2528.518 612.67 2517.124 639.847 2501.377 658.758 L 2502.914 660.037 C 2518.952 640.777 2530.444 613.243 2537.455 577.523 L 2535.492 577.138 Z M 2501.375 658.76 C 2486.35 676.929 2464.413 686.071 2435.396 686.071 L 2435.396 688.071 C 2464.864 688.071 2487.427 678.764 2502.916 660.035 L 2501.375 658.76 Z M 2435.396 686.071 C 2408.3 686.071 2386.975 677.254 2371.301 659.686 L 2369.808 661.017 C 2385.919 679.075 2407.822 688.071 2435.396 688.071 L 2435.396 686.071 Z M 2371.314 659.701 C 2356.23 642.09 2345.783 614.945 2340.075 578.132 L 2338.099 578.438 C 2343.833 615.421 2354.365 642.987 2369.795 661.002 L 2371.314 659.701 Z M 2340.075 578.132 L 2265.698 96.228 L 2263.721 96.533 L 2338.099 578.437 L 2340.075 578.132 Z M 2265.698 96.233 C 2263.787 83.481 2260.899 74.361 2256.927 69.062 L 2255.327 70.261 C 2258.984 75.14 2261.817 83.834 2263.72 96.529 L 2265.698 96.233 Z M 2257.001 69.176 C 2253.677 63.188 2248.921 60.073 2242.777 60.073 L 2242.777 62.073 C 2248.076 62.073 2252.22 64.683 2255.253 70.147 L 2257.001 69.176 Z M 2242.777 60.073 C 2236.054 60.073 2230.67 63.13 2226.688 69.107 L 2228.353 70.216 C 2232 64.741 2236.786 62.073 2242.777 62.073 L 2242.777 60.073 Z M 2226.672 69.132 C 2223.377 74.409 2220.813 83.494 2218.903 96.233 L 2220.881 96.529 C 2222.786 83.821 2225.307 75.093 2228.369 70.191 L 2226.672 69.132 Z M 2218.904 96.228 L 2144.526 578.132 L 2146.503 578.437 L 2220.88 96.533 L 2218.904 96.228 Z M 2144.526 578.132 C 2138.819 614.938 2128.058 642.077 2112.347 659.686 L 2113.84 661.017 C 2129.914 643.001 2140.767 615.428 2146.502 578.438 L 2144.526 578.132 Z M 2112.334 659.701 C 2097.299 677.255 2076.302 686.071 2049.205 686.071 L 2049.205 688.071 C 2076.779 688.071 2098.374 679.075 2113.853 661.002 L 2112.334 659.701 Z" fill="currentColor" fill-rule="nonzero"></path>
</svg>