<svg xmlns="http://www.w3.org/2000/svg" width="85.520" height="126.853" viewBox="0 0 85.520 126.853" fill="none">
  <path d="M 6.648 126.853 C 4.611 126.853 2.994 126.257 1.797 125.066 C 0.599 123.755 0 121.969 0 119.706 L 0 21.44 C 0 14.77 1.976 9.529 5.929 5.717 C 10.001 1.906 15.631 0 22.817 0 L 78.514 0 C 83.185 0 85.52 1.906 85.52 5.717 C 85.52 7.385 84.922 8.695 83.724 9.648 C 82.526 10.601 80.789 11.077 78.514 11.077 L 22.997 11.077 C 20.123 11.077 17.787 12.03 15.99 13.936 C 14.313 15.842 13.475 18.343 13.475 21.44 L 13.475 57.352 L 64.859 57.352 C 69.53 57.352 71.866 59.257 71.866 63.069 C 71.866 64.856 71.207 66.225 69.89 67.178 C 68.692 68.131 67.015 68.608 64.859 68.608 L 13.475 68.608 L 13.475 119.706 C 13.475 121.969 12.876 123.755 11.678 125.066 C 10.48 126.257 8.804 126.853 6.648 126.853 Z" fill="currentColor" fill-rule="nonzero"></path>
</svg>