<svg xmlns="http://www.w3.org/2000/svg" width="148.873" height="127.030" viewBox="0 0 148.873 127.030" fill="none">
  <path d="M 38.505 127.03 C 33.418 127.03 29.337 125.384 26.261 122.09 C 23.186 118.797 20.997 113.68 19.696 106.741 L 0.355 7.763 C 0.118 6.587 0 5.763 0 5.293 C 0 1.764 2.011 0 6.033 0 C 8.517 0 10.292 0.529 11.356 1.588 C 12.421 2.646 13.131 4.234 13.485 6.352 L 32.294 107.094 C 32.886 110.387 33.655 112.681 34.601 113.974 C 35.547 115.151 36.908 115.739 38.682 115.739 C 40.575 115.739 41.994 115.092 42.941 113.798 C 43.887 112.387 44.597 110.211 45.07 107.27 L 59.177 27.143 C 60.006 21.733 61.45 16.762 64.052 14.056 C 66.773 11.233 70.636 9.209 74.777 9.209 C 83.294 9.209 88.232 16.205 89.888 27.143 L 103.803 107.27 C 104.276 110.328 104.986 112.504 105.932 113.798 C 106.878 115.092 108.298 115.739 110.191 115.739 C 111.847 115.739 113.148 115.092 114.094 113.798 C 115.159 112.504 115.987 110.269 116.579 107.094 L 135.387 6.352 C 135.742 4.117 136.452 2.529 137.517 1.588 C 138.7 0.529 140.474 0 142.84 0 C 146.862 0 148.873 1.764 148.873 5.293 C 148.873 5.763 148.755 6.587 148.518 7.763 L 129.177 106.741 C 127.876 113.327 125.746 118.385 122.789 121.914 C 119.95 125.325 115.81 127.03 110.368 127.03 C 105.282 127.03 101.26 125.384 98.302 122.09 C 95.463 118.797 93.511 113.739 92.447 106.917 L 78.676 27.628 C 78.322 25.276 77.924 23.722 77.214 22.781 C 76.623 21.722 75.354 20.842 74.289 20.842 C 73.106 20.842 72.562 21.238 71.852 22.296 C 71.26 23.237 70.744 25.276 70.389 27.628 L 56.426 106.917 C 55.362 113.739 53.351 118.797 50.393 122.09 C 47.554 125.384 43.591 127.03 38.505 127.03 Z" fill="currentColor" fill-rule="nonzero"></path>
</svg>