<svg xmlns="http://www.w3.org/2000/svg" width="89.832" height="126.853" viewBox="0 0 89.832 126.853" fill="none">
  <path d="M 23.176 126.853 C 15.87 126.853 10.181 124.947 6.108 121.135 C 2.036 117.205 0 111.844 0 105.055 L 0 7.147 C 0 4.884 0.599 3.156 1.796 1.965 C 2.994 0.655 4.611 0 6.647 0 C 8.803 0 10.48 0.655 11.678 1.965 C 12.876 3.156 13.475 4.884 13.475 7.147 L 13.475 105.412 C 13.475 108.51 14.313 111.011 15.99 112.917 C 17.787 114.823 20.123 115.775 22.997 115.775 L 82.826 115.775 C 87.497 115.775 89.832 117.621 89.832 121.314 C 89.832 123.101 89.233 124.471 88.036 125.423 C 86.838 126.376 85.101 126.853 82.826 126.853 L 23.176 126.853 Z" fill="currentColor" fill-rule="nonzero"></path>
</svg>