<svg xmlns="http://www.w3.org/2000/svg" width="527.654" height="425.657" viewBox="0 0 527.654 425.657">
  <path d="M 527.654 159.161 C 527.654 158.403 527.608 157.645 527.608 156.887 C 527.608 155.045 527.563 153.258 527.427 151.634 L 527.427 151.471 L 527.427 151.309 C 527.201 146.435 526.703 141.236 526.024 135.875 C 523.353 115.729 516.969 95.746 507.643 78.037 C 498.407 60.599 486.138 45.003 472.148 32.926 C 465.131 26.861 457.616 21.499 449.738 17.005 C 441.951 12.564 433.711 8.936 425.29 6.228 C 416.87 3.52 408.268 1.679 399.711 0.758 L 396.361 0.433 L 395.863 0.379 C 394.957 0.271 394.142 0.217 393.418 0.217 L 393.373 0.217 L 393.327 0.217 C 392.648 0.217 391.969 0.162 391.335 0.162 C 389.751 0.108 388.257 0.054 386.717 0 L 383.412 0.054 L 382.914 0.054 C 382.009 0.054 381.149 0.054 380.379 0.162 L 380.334 0.162 L 380.289 0.162 C 379.7 0.217 379.066 0.217 378.478 0.271 C 376.848 0.379 375.308 0.433 373.814 0.65 L 373.724 0.65 L 373.633 0.65 C 364.85 1.516 356.203 3.303 347.873 5.957 C 339.452 8.665 331.167 12.239 323.289 16.626 C 315.593 20.958 307.987 26.265 300.698 32.439 L 300.652 32.493 L 300.607 32.547 C 300.154 32.926 299.656 33.359 299.113 33.847 C 298.796 34.118 298.479 34.443 298.117 34.713 C 297.8 34.984 297.483 35.255 297.166 35.526 C 296.578 36.013 296.035 36.5 295.582 36.988 L 292.911 39.587 C 292.73 39.75 292.594 39.912 292.413 40.075 C 292.141 40.345 291.915 40.562 291.688 40.779 L 290.421 42.078 L 287.931 44.678 L 285.486 47.386 L 285.441 47.44 L 285.395 47.494 C 284.218 48.739 283.086 50.147 281.909 51.61 C 281.547 52.043 281.185 52.53 280.823 52.963 C 276.476 58.379 272.357 64.39 268.554 70.726 L 262.713 80.474 L 256.828 70.726 C 254.338 66.611 251.712 62.657 248.995 58.975 C 244.061 52.259 238.537 45.869 232.471 39.966 C 226.54 34.172 220.201 28.973 213.637 24.424 C 200.281 15.218 186.02 8.665 171.216 4.928 C 160.938 2.383 150.526 1.083 140.158 1.083 C 135.449 1.083 130.696 1.354 126.033 1.895 C 118.2 2.816 110.685 4.332 103.713 6.444 C 96.424 8.665 89.18 11.589 82.253 15.109 C 75.553 18.467 68.852 22.691 62.287 27.619 C 55.813 32.493 49.747 37.908 44.223 43.757 C 38.609 49.714 33.358 56.267 28.649 63.199 L 28.604 63.253 L 28.559 63.307 C 26.114 66.827 23.941 70.51 21.904 74.03 L 18.825 79.608 L 15.973 85.456 C 12.351 93.309 9.272 101.486 6.827 109.88 L 5.877 113.184 L 5.424 114.808 C 5.379 115.025 5.333 115.242 5.243 115.512 C 5.198 115.729 5.152 115.946 5.107 116.162 C 4.971 116.812 4.79 117.516 4.654 118.166 C 4.292 119.736 3.93 121.199 3.613 122.661 L 2.345 129.43 L 2.21 130.134 L 2.119 130.784 L 1.893 132.517 L 1.44 135.929 C 0.353 144.594 -0.145 153.529 0.036 162.519 C 0.218 171.075 0.806 179.848 1.712 188.459 C 3.613 206.114 7.144 223.064 12.26 238.877 C 14.886 247 17.874 254.907 21.27 262.489 C 24.575 269.854 28.332 277.219 32.543 284.476 C 40.285 297.744 49.566 310.849 60.25 323.413 C 66.951 331.32 74.24 339.172 82.661 347.62 C 74.828 338.36 68.128 329.857 62.016 321.463 C 52.237 308.033 43.906 294.386 37.161 280.901 C 29.917 266.442 24.167 251.17 20.093 235.628 C 18.01 227.721 16.335 219.652 15.113 211.637 C 13.89 203.893 13.03 195.662 12.487 187.159 C 11.853 178.874 11.717 170.588 11.898 162.465 L 11.898 162.356 L 11.898 162.248 C 11.943 161.652 11.943 161.057 11.989 160.461 C 12.124 157.212 12.26 153.854 12.622 150.388 L 12.849 147.68 L 12.849 147.464 L 12.894 147.247 L 13.256 144.485 L 13.256 144.431 L 13.256 144.377 C 13.347 143.835 13.392 143.294 13.483 142.806 C 13.664 141.453 13.845 139.99 14.162 138.42 L 14.66 135.82 L 14.886 134.467 L 15.022 133.817 L 15.067 133.546 L 15.113 133.329 L 15.248 132.679 L 16.471 127.318 L 16.516 127.156 L 16.561 126.993 C 16.833 125.91 17.15 124.827 17.421 123.798 C 17.603 123.094 17.829 122.336 18.01 121.632 L 18.01 121.578 L 18.01 121.524 C 18.055 121.415 18.055 121.307 18.101 121.199 C 18.191 120.874 18.327 120.44 18.463 119.953 L 18.463 119.899 L 18.463 119.845 L 18.87 118.545 L 19.73 115.946 L 19.73 115.891 L 19.73 115.837 C 22.175 108.526 25.208 101.378 28.695 94.554 C 35.395 81.449 44.178 69.481 54.772 58.975 C 59.752 54.101 65.276 49.552 71.071 45.49 C 77.318 41.158 83.159 37.8 88.908 35.201 C 94.93 32.439 101.268 30.11 107.742 28.377 C 113.809 26.753 120.373 25.615 127.255 25.02 C 130.288 24.749 133.367 24.64 136.4 24.64 C 146.632 24.64 156.728 26.049 166.462 28.756 C 179.365 32.385 191.543 38.288 202.681 46.302 C 214.18 54.588 224.186 64.607 232.425 76.142 C 240.982 88.11 247.682 101.378 252.255 115.567 L 262.17 146.327 L 272.583 115.458 C 275.39 107.118 278.785 99.266 282.634 92.063 C 286.754 84.536 291.371 77.55 296.351 71.376 C 301.694 64.769 307.353 58.921 313.103 53.992 C 319.215 48.794 325.643 44.245 332.253 40.508 C 338.954 36.717 345.971 33.576 353.124 31.247 C 360.051 28.973 367.386 27.402 374.992 26.482 C 376.395 26.265 377.708 26.211 379.021 26.103 C 379.519 26.049 380.017 26.049 380.515 25.994 C 381.42 25.886 382.281 25.886 383.05 25.886 L 383.503 25.886 L 386.129 25.778 L 386.219 25.778 L 386.31 25.778 C 387.396 25.778 388.483 25.832 389.524 25.832 C 390.249 25.832 390.928 25.886 391.652 25.886 L 391.743 25.886 C 392.693 25.886 393.554 25.94 394.323 25.994 L 394.731 26.049 L 397.357 26.265 L 397.402 26.265 L 397.447 26.265 C 405.008 26.969 412.433 28.431 419.495 30.543 C 426.739 32.71 433.847 35.688 440.638 39.371 C 447.474 43.053 454.039 47.494 460.151 52.53 C 472.737 62.928 483.286 75.709 491.571 90.439 C 495.781 97.912 499.358 105.873 502.21 113.996 C 505.062 122.228 507.281 130.892 508.729 139.665 C 509.499 144.323 509.997 148.655 510.359 152.825 C 510.54 154.558 510.631 156.237 510.676 157.699 C 510.721 158.349 510.721 158.945 510.767 159.54 L 510.767 159.594 L 510.767 159.649 L 510.857 161.219 L 510.903 162.031 L 510.903 162.248 L 510.903 162.465 L 510.903 163.331 L 510.903 166.689 L 510.948 169.992 C 510.948 170.913 510.948 171.779 510.903 172.537 C 510.903 172.917 510.903 173.242 510.857 173.621 L 510.857 173.675 L 510.857 173.729 L 510.767 177.086 L 510.721 178.765 C 510.721 179.307 510.676 179.794 510.676 180.227 C 510.676 180.39 510.676 180.552 510.631 180.715 L 510.631 180.769 L 510.631 180.823 L 510.269 187.484 L 510.269 187.647 L 510.269 187.809 L 509.725 194.47 L 509.725 194.524 L 509.725 194.579 C 508.82 204.001 507.417 213.208 505.651 221.927 C 503.84 230.754 501.486 239.69 498.633 248.517 C 493.246 265.197 485.776 281.876 476.449 298.177 C 468.164 312.69 458.295 327.15 446.297 342.421 C 440.819 349.353 435.115 356.231 429.32 362.838 C 423.661 369.282 417.684 375.889 411.573 382.442 C 400.345 394.464 388.619 406.378 377.255 417.913 C 374.72 420.459 372.185 423.058 369.649 425.657 C 369.785 425.549 369.966 425.387 370.102 425.278 C 384.725 412.769 399.801 399.88 414.379 386.449 C 429.093 372.911 440.955 360.996 451.73 348.92 C 464.724 334.406 475.634 320.272 485.051 305.596 C 490.213 297.581 494.921 289.295 499.131 281.118 C 503.432 272.724 507.326 263.788 510.721 254.636 C 517.512 236.44 522.311 217.053 524.892 197.07 L 525.752 189.542 L 526.431 181.96 C 526.431 181.69 526.477 181.473 526.477 181.202 C 526.522 180.877 526.522 180.498 526.567 180.282 L 526.658 178.332 L 526.884 174.487 C 526.929 174 526.929 173.512 526.975 173.079 C 527.02 172.321 527.065 171.563 527.065 170.913 L 527.156 167.014 L 527.246 163.169 L 527.246 162.356 L 527.246 161.49 L 527.654 159.161 Z" fill="black" fill-rule="nonzero"></path>
</svg>