<svg xmlns="http://www.w3.org/2000/svg" width="130.963" height="189.124" viewBox="0 0 130.963 189.124">
  <path d="M 9.776 187 C 5.276 191 -1.446 189.718 0.276 180 C 1.998 170.282 17.408 133.393 19.302 124.966 C 21.197 116.624 7.601 106.953 24.039 97.791 C 40.476 88.628 59.601 79.953 61.929 78.957 C 64.257 77.962 65.541 77.317 66.321 76.635 C 67.101 75.953 61.929 45.848 73.985 38.968 C 86.041 32.089 113.081 19.361 117.645 15.577 C 122.21 11.793 118.101 -0.429 126.601 0.012 C 135.101 0.452 129.874 23.833 122.037 30.627 C 114.201 37.42 86.895 46.67 85.776 60 C 84.656 73.33 87.152 75.648 90.276 85 C 93.4 94.352 115.421 114.605 117.776 121.5 C 120.131 128.395 118.248 162.289 118.076 169.34 C 117.904 176.392 118.434 189.054 110.276 189 C 102.118 188.946 102.834 157.731 102.661 150.421 C 102.489 143.111 101.025 133.135 93.103 124.364 C 82.276 115.5 73.776 116 65.276 109 C 59.634 104.354 47.048 100.428 43.776 113.5 C 38.087 127.3 37.776 130 31.617 138.897 C 28.086 142.853 14.276 183 9.776 187 Z" fill="black" fill-rule="nonzero"></path>
</svg>