<svg xmlns="http://www.w3.org/2000/svg" width="503" height="621" viewBox="0 0 503 621">
  <path d="M 449.025 0 C 430.545 0 397.8 14.6 347.548 83.384 L 330.69 106.42 L 315.452 82.086 C 293.406 47.37 270.712 28.227 244.127 21.738 C 238.291 20.44 232.131 19.467 226.296 19.467 C 195.172 19.467 164.696 40.556 148.81 73.002 C 122.55 126.212 145.893 188.182 169.235 236.201 C 199.387 298.495 238.291 358.843 284.653 415.622 L 296 429.574 L 283.032 441.903 C 202.304 519.771 107.312 579.47 0 620.027 C 0.324 620.676 0.973 621 1.621 621 C 1.945 621 2.269 621 2.594 620.676 C 95.641 594.719 187.067 545.727 266.497 478.566 C 344.631 413.027 409.796 331.589 454.861 243.663 C 470.098 213.813 490.523 168.715 498.953 123.94 C 508.03 75.922 501.87 39.583 480.149 15.898 C 470.098 5.191 460.048 0 449.025 0 Z M 484.688 93.118 C 483.391 114.207 478.528 133.998 476.907 141.785 C 455.833 225.818 404.933 298.495 357.923 358.843 C 345.927 374.417 332.959 389.666 319.343 404.266 L 303.781 421.138 L 289.516 402.969 C 234.077 332.887 194.848 266.375 168.911 199.538 C 162.751 183.964 152.701 153.141 152.701 121.994 C 152.701 75.597 175.071 53.859 193.875 43.801 C 204.574 37.961 215.597 35.041 226.62 35.041 C 275.899 35.041 305.726 92.144 321.612 122.967 C 323.233 126.536 328.096 129.456 331.338 129.456 C 332.311 129.456 332.635 129.456 333.932 127.834 C 336.526 123.94 339.119 119.723 342.037 115.18 C 360.193 86.629 385.156 47.37 414.011 31.472 C 425.034 25.307 435.084 22.387 444.162 22.387 C 455.833 22.387 466.208 27.254 473.34 36.663 C 483.066 48.668 486.633 67.161 484.688 93.118 Z" fill="black" fill-rule="nonzero"></path>
</svg>