<svg xmlns="http://www.w3.org/2000/svg" width="259" height="395.240" viewBox="0 0 259 395.240" fill="none">
  <path d="M 141.62 395.24 C 124.077 394.437 106.435 393.735 88.892 393.033 C 84.081 392.833 79.169 393.033 74.357 392.732 C 70.949 392.532 67.641 391.73 64.233 391.629 C 58.018 391.328 51.803 391.328 45.487 391.228 C 44.685 391.228 43.783 391.529 42.981 391.328 C 38.971 390.326 34.962 390.225 30.852 391.028 C 29.749 391.228 28.346 390.727 27.444 390.025 C 26.642 389.323 25.639 387.919 25.84 387.016 C 26.04 386.013 27.444 385.01 28.446 384.609 C 30.952 383.706 33.659 383.405 36.064 382.403 C 37.067 382.001 38.27 380.798 38.47 379.795 C 40.174 372.875 38.971 366.256 35.663 359.938 C 33.759 356.327 32.556 352.516 32.656 348.204 C 32.756 340.582 32.656 332.96 32.355 325.438 C 31.955 315.609 31.153 305.781 28.045 296.354 C 26.441 291.339 24.336 286.325 22.632 281.31 C 21.429 277.7 20.226 273.989 19.324 270.278 C 18.021 264.862 16.918 259.347 15.816 253.931 C 15.515 252.627 15.314 251.323 15.314 249.919 C 15.515 242.899 12.508 236.781 9.701 230.664 C 6.292 223.142 2.483 215.821 1.581 207.497 C 1.28 204.688 0.278 201.981 0.077 199.172 C -0.524 191.55 2.383 185.332 8.598 181.12 C 14.111 177.309 20.026 174 25.94 170.79 C 32.456 167.28 39.172 164.071 45.788 160.862 C 52.404 157.652 58.819 154.644 65.235 151.635 C 72.452 148.325 79.57 144.915 86.887 141.907 C 90.296 140.503 93.904 139.399 97.613 138.697 C 102.826 137.695 108.239 137.494 113.452 136.491 C 122.874 134.686 130.793 130.173 135.906 121.748 C 142.422 111.017 150.742 101.891 160.766 94.369 C 170.991 86.547 182.318 80.529 194.247 75.615 C 196.352 74.813 198.557 74.211 200.562 73.308 C 201.364 72.907 201.865 71.904 202.467 71.102 C 201.765 70.701 201.063 69.999 200.362 69.798 C 193.846 68.294 188.032 65.486 182.619 61.675 C 173.196 54.955 163.573 48.537 153.949 42.218 C 151.343 40.513 148.135 39.811 145.128 38.808 C 143.224 38.207 141.82 38.909 140.417 40.614 C 137.71 44.224 131.896 46.13 126.984 42.519 C 122.874 39.51 120.469 35.298 120.469 30.384 C 120.569 24.768 117.762 22.16 113.151 20.054 C 110.043 18.65 107.036 16.745 104.43 14.538 C 101.723 12.232 99.117 10.025 95.709 8.822 C 94.606 8.421 93.704 7.719 92.802 6.916 C 91.198 5.612 90.596 3.105 91.699 1.601 C 93.002 -0.104 94.907 -0.405 96.611 0.498 C 104.931 4.91 114.053 7.016 122.975 9.423 C 133.099 12.131 142.823 16.043 152.045 21.057 C 156.055 23.263 160.666 24.467 165.076 25.971 C 170.991 27.977 177.005 29.983 183.02 31.888 C 188.032 33.493 193.044 34.997 198.056 36.502 C 204.472 38.407 210.987 40.513 217.503 42.218 C 222.916 43.622 228.43 44.625 233.943 45.528 C 241.862 46.832 249.38 48.837 255.695 54.153 C 258.502 56.56 259.304 59.669 258.903 63.179 C 258.202 69.497 254.893 74.612 251.084 79.426 C 244.268 87.951 235.547 94.369 227.026 101.089 C 220.711 106.003 214.997 111.619 209.484 117.336 C 202.266 124.857 196.552 133.583 191.24 142.609 C 190.137 144.514 190.337 145.718 192.042 147.122 C 198.156 152.036 204.171 157.051 208.682 163.569 C 211.789 168.183 214.897 172.796 217.704 177.61 C 224.219 188.843 226.324 201.479 228.53 214.116 C 229.231 218.328 228.73 222.841 229.231 227.053 C 229.933 233.472 230.635 239.79 232.038 246.108 C 233.542 252.928 233.542 259.647 230.434 265.865 C 226.826 272.886 221.814 278.803 214.596 282.714 C 207.379 286.525 200.161 290.336 193.244 294.548 C 186.929 298.359 185.025 304.678 184.624 311.798 C 183.922 325.237 182.619 338.576 181.516 351.914 C 181.416 352.717 181.416 353.619 181.316 354.422 C 180.514 362.846 179.812 371.371 178.709 379.795 C 178.308 382.804 177.206 385.812 175.702 388.42 C 172.995 393.234 168.685 395.139 162.971 394.738 C 155.954 394.237 148.837 394.638 141.72 394.638 C 141.62 395.039 141.62 395.139 141.62 395.24 Z M 150.441 335.366 C 148.737 336.771 147.634 338.175 146.231 338.877 C 143.524 340.381 140.617 340.782 137.309 339.98 C 132.798 338.877 128.087 337.473 124.779 342.989 C 123.075 345.696 120.869 345.596 118.464 343.289 C 116.359 341.284 114.253 339.177 112.249 337.172 C 110.344 335.266 108.239 334.865 105.633 335.266 C 103.828 335.567 101.823 335.467 100.019 335.066 C 96.41 334.163 93.303 332.257 90.596 329.65 C 89.895 328.948 88.591 328.346 87.589 328.346 C 83.078 328.246 81.274 327.143 79.469 322.93 C 78.667 321.025 77.866 319.119 76.963 317.214 C 75.159 313.102 74.056 308.89 75.259 304.377 C 75.76 302.371 75.76 300.465 74.056 298.861 C 73.154 298.059 72.553 296.855 71.951 295.752 C 69.846 292.242 67.741 288.23 69.345 284.419 C 70.949 280.608 71.049 277.198 71.049 273.287 C 71.149 268.272 75.059 265.565 79.469 263.759 C 82.076 262.656 84.582 261.453 86.988 260.049 C 89.594 258.544 92.601 258.845 94.806 260.851 C 95.909 261.854 97.513 262.355 98.816 263.258 C 99.618 263.759 100.621 264.261 100.921 265.063 C 102.425 268.674 102.625 268.674 105.733 266.166 C 111.046 261.854 117.06 260.149 123.776 261.653 C 133.4 263.86 139.815 270.278 144.627 278.602 C 145.73 280.508 146.632 282.413 147.835 284.219 C 148.236 284.72 149.238 285.121 149.94 285.021 C 150.341 284.921 150.842 283.918 150.942 283.216 C 151.744 277.8 152.646 272.384 154.952 267.37 C 157.057 262.756 159.864 258.745 163.673 255.736 C 170.69 250.32 174.399 243.1 176.003 234.675 C 178.308 223.242 175.101 212.712 169.587 202.783 C 167.683 199.473 165.377 196.565 161.167 196.063 C 159.463 195.863 157.658 195.863 155.954 195.963 C 146.532 196.264 137.008 196.264 128.187 192.252 C 123.275 190.046 118.965 186.436 114.354 183.527 C 113.552 183.026 112.349 182.725 111.447 182.925 C 107.637 183.728 103.828 184.831 100.119 185.734 C 91.198 187.94 82.276 189.745 73.455 192.353 C 63.731 195.161 54.208 198.571 44.585 201.88 C 42.38 202.683 40.275 203.986 38.17 205.09 C 37.067 205.691 36.766 206.594 37.568 207.797 C 41.979 214.717 46.089 221.738 48.194 229.661 C 50.098 236.48 52.304 243.4 52.705 250.32 C 53.306 259.848 52.504 269.476 52.003 279.104 C 51.602 288.431 50.7 297.758 50.199 307.085 C 49.798 313.804 52.905 318.718 58.819 321.526 C 62.228 323.231 64.634 325.739 66.037 329.148 C 68.142 334.364 68.543 339.579 63.731 344.092 C 61.426 346.298 59.321 349.106 58.519 352.115 C 57.316 356.628 57.216 361.542 56.915 366.256 C 56.714 368.863 58.018 370.368 60.624 371.07 C 64.734 372.273 68.844 373.677 73.054 374.781 C 78.467 376.185 83.88 377.589 89.393 378.491 C 94.907 379.394 100.32 378.491 105.633 376.586 C 113.051 373.978 120.569 371.972 128.087 369.565 C 132.698 368.161 137.209 366.356 141.82 365.052 C 146.532 363.648 147.835 362.445 148.436 357.631 C 149.038 352.917 149.739 348.204 150.24 343.49 C 150.641 340.782 150.441 338.175 150.441 335.366 Z" fill="currentColor" fill-rule="nonzero"></path>
  <path d="M 141.62 395.24 L 141.437 399.236 L 145.62 399.427 L 145.62 395.24 L 141.62 395.24 Z M 88.892 393.033 L 88.726 397.03 L 88.732 397.03 L 88.892 393.033 Z M 74.357 392.732 L 74.607 388.74 L 74.599 388.74 L 74.592 388.739 L 74.357 392.732 Z M 64.233 391.629 L 64.039 395.625 L 64.077 395.626 L 64.115 395.628 L 64.233 391.629 Z M 45.487 391.228 L 45.551 387.229 L 45.519 387.228 L 45.487 387.228 L 45.487 391.228 Z M 42.981 391.328 L 43.952 387.448 L 42.981 391.328 Z M 30.852 391.028 L 31.568 394.963 L 31.593 394.958 L 31.618 394.953 L 30.852 391.028 Z M 27.444 390.025 L 24.809 393.034 L 24.896 393.11 L 24.987 393.181 L 27.444 390.025 Z M 25.84 387.016 L 29.745 387.883 L 29.754 387.842 L 29.762 387.8 L 25.84 387.016 Z M 28.446 384.609 L 27.091 380.846 L 27.025 380.869 L 26.96 380.895 L 28.446 384.609 Z M 36.064 382.403 L 34.578 378.689 L 34.552 378.7 L 34.525 378.711 L 36.064 382.403 Z M 38.47 379.795 L 34.586 378.839 L 34.565 378.924 L 34.548 379.011 L 38.47 379.795 Z M 35.663 359.938 L 39.207 358.082 L 39.201 358.071 L 35.663 359.938 Z M 32.656 348.204 L 36.655 348.297 L 36.656 348.276 L 36.656 348.256 L 32.656 348.204 Z M 32.355 325.438 L 36.352 325.278 L 36.352 325.275 L 32.355 325.438 Z M 28.045 296.354 L 24.235 297.572 L 24.241 297.589 L 24.246 297.606 L 28.045 296.354 Z M 22.632 281.31 L 18.837 282.574 L 18.841 282.586 L 18.845 282.597 L 22.632 281.31 Z M 19.324 270.278 L 15.435 271.214 L 15.437 271.223 L 19.324 270.278 Z M 15.816 253.931 L 19.735 253.133 L 19.725 253.082 L 19.713 253.032 L 15.816 253.931 Z M 15.314 249.919 L 11.316 249.805 L 11.314 249.862 L 11.314 249.919 L 15.314 249.919 Z M 9.701 230.664 L 6.057 232.314 L 6.061 232.323 L 6.065 232.332 L 9.701 230.664 Z M 1.581 207.497 L -2.396 207.922 L -2.396 207.928 L 1.581 207.497 Z M 0.077 199.172 L 4.067 198.888 L 4.066 198.873 L 4.065 198.858 L 0.077 199.172 Z M 8.598 181.12 L 10.842 184.431 L 10.857 184.421 L 10.873 184.411 L 8.598 181.12 Z M 25.94 170.79 L 24.043 167.269 L 24.032 167.275 L 25.94 170.79 Z M 65.235 151.635 L 63.568 147.999 L 63.552 148.006 L 63.537 148.013 L 65.235 151.635 Z M 86.887 141.907 L 88.408 145.606 L 88.411 145.605 L 86.887 141.907 Z M 97.613 138.697 L 98.357 142.628 L 98.369 142.625 L 97.613 138.697 Z M 113.452 136.491 L 112.699 132.563 L 112.696 132.563 L 113.452 136.491 Z M 135.906 121.748 L 132.487 119.672 L 132.486 119.673 L 135.906 121.748 Z M 160.766 94.369 L 163.167 97.569 L 163.182 97.557 L 163.196 97.546 L 160.766 94.369 Z M 194.247 75.615 L 192.822 71.877 L 192.773 71.896 L 192.723 71.916 L 194.247 75.615 Z M 200.562 73.308 L 202.204 76.956 L 202.279 76.922 L 202.352 76.886 L 200.562 73.308 Z M 202.467 71.102 L 205.667 73.501 L 208.384 69.877 L 204.452 67.629 L 202.467 71.102 Z M 200.362 69.798 L 201.461 65.952 L 201.362 65.924 L 201.262 65.901 L 200.362 69.798 Z M 182.619 61.675 L 180.296 64.931 L 180.306 64.938 L 180.316 64.945 L 182.619 61.675 Z M 153.949 42.218 L 156.145 38.875 L 156.139 38.871 L 153.949 42.218 Z M 145.128 38.808 L 146.394 35.014 L 146.363 35.004 L 146.333 34.994 L 145.128 38.808 Z M 140.417 40.614 L 137.328 38.072 L 137.271 38.142 L 137.216 38.214 L 140.417 40.614 Z M 126.984 42.519 L 129.353 39.296 L 129.347 39.292 L 126.984 42.519 Z M 120.469 30.384 L 116.469 30.313 L 116.469 30.348 L 116.469 30.384 L 120.469 30.384 Z M 113.151 20.054 L 114.813 16.416 L 114.805 16.412 L 114.798 16.409 L 113.151 20.054 Z M 104.43 14.538 L 101.835 17.583 L 101.845 17.591 L 104.43 14.538 Z M 95.709 8.822 L 94.341 12.581 L 94.359 12.587 L 94.377 12.593 L 95.709 8.822 Z M 92.802 6.916 L 95.46 3.927 L 95.394 3.868 L 95.325 3.812 L 92.802 6.916 Z M 91.699 1.601 L 88.521 -0.828 L 88.497 -0.796 L 88.473 -0.764 L 91.699 1.601 Z M 96.611 0.498 L 98.485 -3.036 L 98.483 -3.037 L 96.611 0.498 Z M 122.975 9.423 L 121.933 13.285 L 121.941 13.288 L 122.975 9.423 Z M 152.045 21.057 L 153.973 17.553 L 153.964 17.548 L 153.956 17.543 L 152.045 21.057 Z M 165.076 25.971 L 163.785 29.757 L 163.792 29.759 L 165.076 25.971 Z M 183.02 31.888 L 184.239 28.079 L 184.228 28.075 L 183.02 31.888 Z M 198.056 36.502 L 196.906 40.333 L 196.917 40.336 L 198.056 36.502 Z M 217.503 42.218 L 216.491 46.088 L 216.499 46.09 L 217.503 42.218 Z M 233.943 45.528 L 234.593 41.581 L 234.589 41.58 L 233.943 45.528 Z M 255.695 54.153 L 258.299 51.116 L 258.285 51.104 L 258.271 51.093 L 255.695 54.153 Z M 258.903 63.179 L 254.929 62.725 L 254.928 62.737 L 258.903 63.179 Z M 251.084 79.426 L 254.208 81.924 L 254.215 81.916 L 254.221 81.908 L 251.084 79.426 Z M 227.026 101.089 L 229.483 104.245 L 229.493 104.238 L 229.503 104.229 L 227.026 101.089 Z M 209.484 117.336 L 206.605 114.559 L 206.597 114.566 L 209.484 117.336 Z M 191.24 142.609 L 187.792 140.58 L 187.785 140.593 L 187.777 140.605 L 191.24 142.609 Z M 192.042 147.122 L 189.498 150.209 L 189.517 150.224 L 189.536 150.24 L 192.042 147.122 Z M 208.682 163.569 L 211.999 161.335 L 211.985 161.314 L 211.971 161.293 L 208.682 163.569 Z M 217.704 177.61 L 221.164 175.603 L 221.159 175.595 L 217.704 177.61 Z M 228.53 214.116 L 232.475 213.458 L 232.473 213.443 L 232.47 213.428 L 228.53 214.116 Z M 229.231 227.053 L 233.208 226.618 L 233.206 226.599 L 233.203 226.58 L 229.231 227.053 Z M 232.038 246.108 L 235.944 245.247 L 235.943 245.241 L 232.038 246.108 Z M 230.434 265.865 L 233.992 267.694 L 234.002 267.674 L 234.012 267.654 L 230.434 265.865 Z M 214.596 282.714 L 216.464 286.251 L 216.483 286.241 L 216.502 286.231 L 214.596 282.714 Z M 193.244 294.548 L 195.311 297.973 L 195.318 297.969 L 195.325 297.965 L 193.244 294.548 Z M 184.624 311.798 L 180.63 311.573 L 180.629 311.582 L 180.629 311.59 L 184.624 311.798 Z M 181.516 351.914 L 185.485 352.41 L 185.496 352.327 L 185.503 352.244 L 181.516 351.914 Z M 181.316 354.422 L 177.346 353.926 L 177.339 353.984 L 177.334 354.043 L 181.316 354.422 Z M 178.709 379.795 L 182.674 380.323 L 182.675 380.314 L 178.709 379.795 Z M 175.702 388.42 L 172.237 386.422 L 172.226 386.441 L 172.215 386.46 L 175.702 388.42 Z M 162.971 394.738 L 162.686 398.728 L 162.691 398.728 L 162.971 394.738 Z M 141.72 394.638 L 141.72 390.638 L 138.596 390.638 L 137.839 393.668 L 141.72 394.638 Z M 150.441 335.366 L 154.441 335.366 L 154.441 326.888 L 147.897 332.279 L 150.441 335.366 Z M 146.231 338.877 L 144.441 335.299 L 144.364 335.338 L 144.288 335.38 L 146.231 338.877 Z M 137.309 339.98 L 136.359 343.865 L 136.366 343.867 L 137.309 339.98 Z M 124.779 342.989 L 128.164 345.119 L 128.187 345.083 L 128.209 345.046 L 124.779 342.989 Z M 118.464 343.289 L 121.232 340.402 L 121.223 340.394 L 118.464 343.289 Z M 112.249 337.172 L 109.42 339.999 L 112.249 337.172 Z M 105.633 335.266 L 105.024 331.313 L 104.999 331.317 L 104.975 331.321 L 105.633 335.266 Z M 100.019 335.066 L 99.048 338.946 L 99.1 338.959 L 99.151 338.97 L 100.019 335.066 Z M 90.596 329.65 L 87.767 332.478 L 87.794 332.504 L 87.821 332.531 L 90.596 329.65 Z M 87.589 328.346 L 87.5 332.345 L 87.545 332.346 L 87.589 332.346 L 87.589 328.346 Z M 79.469 322.93 L 75.783 324.482 L 75.788 324.494 L 75.793 324.506 L 79.469 322.93 Z M 76.963 317.214 L 73.3 318.821 L 73.324 318.874 L 73.348 318.926 L 76.963 317.214 Z M 75.259 304.377 L 79.124 305.407 L 79.132 305.377 L 79.14 305.346 L 75.259 304.377 Z M 74.056 298.861 L 76.798 295.949 L 76.757 295.91 L 76.714 295.872 L 74.056 298.861 Z M 71.951 295.752 L 75.463 293.837 L 75.424 293.765 L 75.382 293.695 L 71.951 295.752 Z M 71.049 273.287 L 67.05 273.207 L 67.049 273.247 L 67.049 273.287 L 71.049 273.287 Z M 79.469 263.759 L 80.985 267.461 L 81.007 267.452 L 81.029 267.443 L 79.469 263.759 Z M 86.988 260.049 L 84.988 256.584 L 84.98 256.589 L 84.971 256.594 L 86.988 260.049 Z M 98.816 263.258 L 96.539 266.546 L 96.616 266.6 L 96.695 266.649 L 98.816 263.258 Z M 100.921 265.063 L 97.176 266.467 L 97.201 266.534 L 97.229 266.601 L 100.921 265.063 Z M 105.733 266.166 L 108.245 269.279 L 108.254 269.272 L 105.733 266.166 Z M 123.776 261.653 L 124.67 257.754 L 124.661 257.752 L 124.651 257.75 L 123.776 261.653 Z M 144.627 278.602 L 141.164 280.604 L 141.165 280.606 L 144.627 278.602 Z M 147.835 284.219 L 144.506 286.437 L 144.602 286.581 L 144.711 286.717 L 147.835 284.219 Z M 149.94 285.021 L 150.506 288.981 L 150.71 288.951 L 150.91 288.901 L 149.94 285.021 Z M 150.942 283.216 L 146.985 282.63 L 146.984 282.64 L 146.982 282.65 L 150.942 283.216 Z M 154.952 267.37 L 158.586 269.041 L 158.591 269.03 L 154.952 267.37 Z M 163.673 255.736 L 161.229 252.57 L 161.211 252.583 L 161.194 252.597 L 163.673 255.736 Z M 176.003 234.675 L 172.082 233.884 L 172.077 233.906 L 172.073 233.927 L 176.003 234.675 Z M 169.587 202.783 L 173.084 200.841 L 173.069 200.814 L 173.054 200.788 L 169.587 202.783 Z M 161.167 196.063 L 161.64 192.092 L 161.634 192.091 L 161.167 196.063 Z M 155.954 195.963 L 156.082 199.961 L 156.136 199.959 L 156.189 199.956 L 155.954 195.963 Z M 128.187 192.252 L 129.843 188.611 L 129.835 188.607 L 129.826 188.604 L 128.187 192.252 Z M 114.354 183.527 L 116.488 180.144 L 116.481 180.14 L 116.474 180.136 L 114.354 183.527 Z M 111.447 182.925 L 112.271 186.84 L 112.293 186.835 L 112.315 186.83 L 111.447 182.925 Z M 100.119 185.734 L 99.173 181.847 L 99.166 181.849 L 99.159 181.851 L 100.119 185.734 Z M 73.455 192.353 L 74.565 196.196 L 74.577 196.192 L 74.589 196.189 L 73.455 192.353 Z M 44.585 201.88 L 43.284 198.098 L 43.251 198.109 L 43.218 198.121 L 44.585 201.88 Z M 38.17 205.09 L 36.313 201.547 L 36.283 201.562 L 36.253 201.578 L 38.17 205.09 Z M 37.568 207.797 L 40.941 205.647 L 40.919 205.613 L 40.897 205.579 L 37.568 207.797 Z M 48.194 229.661 L 44.328 230.688 L 44.334 230.712 L 44.341 230.737 L 48.194 229.661 Z M 52.705 250.32 L 48.711 250.552 L 48.712 250.562 L 48.713 250.572 L 52.705 250.32 Z M 52.003 279.104 L 48.008 278.896 L 48.007 278.914 L 48.007 278.932 L 52.003 279.104 Z M 50.199 307.085 L 54.192 307.323 L 54.192 307.311 L 54.193 307.299 L 50.199 307.085 Z M 58.819 321.526 L 60.609 317.949 L 60.572 317.931 L 60.535 317.913 L 58.819 321.526 Z M 66.037 329.148 L 69.746 327.651 L 69.741 327.639 L 69.736 327.626 L 66.037 329.148 Z M 63.731 344.092 L 60.995 341.174 L 60.98 341.188 L 60.966 341.202 L 63.731 344.092 Z M 58.519 352.115 L 62.384 353.145 L 58.519 352.115 Z M 56.915 366.256 L 60.903 366.563 L 60.905 366.537 L 60.907 366.511 L 56.915 366.256 Z M 60.624 371.07 L 61.748 367.231 L 61.706 367.219 L 61.664 367.207 L 60.624 371.07 Z M 73.054 374.781 L 72.04 378.65 L 72.05 378.652 L 73.054 374.781 Z M 105.633 376.586 L 104.306 372.812 L 104.294 372.816 L 104.282 372.821 L 105.633 376.586 Z M 128.087 369.565 L 126.922 365.739 L 126.894 365.747 L 126.867 365.756 L 128.087 369.565 Z M 141.82 365.052 L 142.908 368.901 L 142.936 368.894 L 142.963 368.886 L 141.82 365.052 Z M 148.436 357.631 L 144.468 357.125 L 144.467 357.135 L 148.436 357.631 Z M 150.24 343.49 L 146.284 342.904 L 146.272 342.985 L 146.263 343.067 L 150.24 343.49 Z M 141.802 391.244 C 124.246 390.441 106.592 389.738 89.052 389.037 L 88.732 397.03 C 106.277 397.732 123.908 398.434 141.437 399.236 L 141.802 391.244 Z M 89.059 389.037 C 86.562 388.933 84.042 388.933 81.645 388.921 C 79.215 388.908 76.886 388.883 74.607 388.74 L 74.107 396.725 C 76.639 396.883 79.173 396.908 81.604 396.92 C 84.069 396.933 86.411 396.933 88.726 397.03 L 89.059 389.037 Z M 74.592 388.739 C 73.088 388.651 71.592 388.429 69.857 388.183 C 68.185 387.946 66.304 387.688 64.35 387.631 L 64.115 395.628 C 65.569 395.67 67.046 395.864 68.733 396.104 C 70.356 396.334 72.218 396.613 74.122 396.726 L 74.592 388.739 Z M 64.426 387.634 C 58.124 387.329 51.781 387.328 45.551 387.229 L 45.424 395.228 C 51.824 395.329 57.911 395.328 64.039 395.625 L 64.426 387.634 Z M 45.487 387.228 C 45.052 387.228 44.663 387.268 44.396 387.3 C 44.259 387.316 44.126 387.334 44.026 387.348 C 43.917 387.362 43.839 387.372 43.767 387.381 C 43.618 387.398 43.582 387.397 43.598 387.397 C 43.621 387.397 43.755 387.399 43.952 387.448 L 42.011 395.209 C 43.159 395.496 44.199 395.385 44.702 395.326 C 44.842 395.309 44.977 395.292 45.08 395.278 C 45.193 395.263 45.271 395.253 45.345 395.244 C 45.497 395.226 45.521 395.228 45.487 395.228 L 45.487 387.228 Z M 43.952 387.448 C 39.367 386.301 34.764 386.188 30.085 387.102 L 31.618 394.953 C 35.16 394.262 38.576 394.35 42.011 395.209 L 43.952 387.448 Z M 30.136 387.092 C 30.289 387.064 30.375 387.074 30.375 387.074 C 30.378 387.074 30.34 387.07 30.266 387.047 C 30.194 387.024 30.115 386.992 30.04 386.953 C 29.963 386.913 29.916 386.88 29.9 386.868 L 24.987 393.181 C 26.48 394.343 29.012 395.428 31.568 394.963 L 30.136 387.092 Z M 30.078 387.015 C 30.054 386.993 29.986 386.928 29.9 386.825 C 29.816 386.724 29.75 386.629 29.71 386.561 C 29.663 386.482 29.693 386.512 29.734 386.652 C 29.756 386.729 29.791 386.87 29.806 387.066 C 29.821 387.263 29.82 387.546 29.745 387.883 L 21.935 386.149 C 21.484 388.179 22.402 389.919 22.822 390.63 C 23.369 391.556 24.096 392.41 24.809 393.034 L 30.078 387.015 Z M 29.762 387.8 C 29.712 388.05 29.637 388.242 29.575 388.37 C 29.514 388.498 29.457 388.582 29.426 388.625 C 29.37 388.702 29.358 388.698 29.433 388.634 C 29.502 388.576 29.598 388.506 29.709 388.439 C 29.822 388.371 29.904 388.334 29.932 388.323 L 26.96 380.895 C 26.059 381.256 25.084 381.831 24.251 382.54 C 23.538 383.146 22.286 384.387 21.917 386.232 L 29.762 387.8 Z M 29.801 388.372 C 30.805 388.011 31.865 387.764 33.237 387.43 C 34.516 387.12 36.076 386.731 37.604 386.095 L 34.525 378.711 C 33.647 379.077 32.651 379.34 31.349 379.656 C 30.14 379.95 28.593 380.305 27.091 380.846 L 29.801 388.372 Z M 37.551 386.116 C 38.718 385.649 39.733 384.856 40.473 384.075 C 41.169 383.339 42.083 382.129 42.393 380.579 L 34.548 379.011 C 34.582 378.839 34.627 378.714 34.658 378.64 C 34.689 378.565 34.715 378.521 34.724 378.506 C 34.738 378.482 34.723 378.512 34.664 378.574 C 34.607 378.634 34.545 378.687 34.498 378.721 C 34.477 378.736 34.468 378.741 34.475 378.737 C 34.48 378.734 34.515 378.714 34.578 378.689 L 37.551 386.116 Z M 42.354 380.751 C 44.331 372.725 42.886 365.108 39.207 358.082 L 32.12 361.793 C 35.057 367.404 36.018 373.025 34.586 378.839 L 42.354 380.751 Z M 39.201 358.071 C 37.524 354.891 36.575 351.755 36.655 348.297 L 28.657 348.111 C 28.537 353.277 29.994 357.764 32.126 361.804 L 39.201 358.071 Z M 36.656 348.256 C 36.757 340.564 36.656 332.872 36.352 325.278 L 28.359 325.598 C 28.657 333.047 28.756 340.599 28.657 348.151 L 36.656 348.256 Z M 36.352 325.275 C 35.949 315.385 35.136 305.087 31.844 295.101 L 24.246 297.606 C 27.17 306.475 27.96 315.833 28.359 325.601 L 36.352 325.275 Z M 31.855 295.135 C 31.02 292.524 30.061 289.935 29.122 287.428 C 28.172 284.893 27.246 282.457 26.419 280.023 L 18.845 282.597 C 19.722 285.178 20.701 287.756 21.631 290.236 C 22.57 292.743 23.466 295.168 24.235 297.572 L 31.855 295.135 Z M 26.427 280.046 C 25.225 276.438 24.07 272.866 23.211 269.333 L 15.437 271.223 C 16.383 275.111 17.633 278.962 18.837 282.574 L 26.427 280.046 Z M 23.213 269.342 C 21.93 264.011 20.843 258.575 19.735 253.133 L 11.896 254.729 C 12.993 260.118 14.112 265.714 15.435 271.214 L 23.213 269.342 Z M 19.713 253.032 C 19.457 251.922 19.314 250.932 19.314 249.919 L 11.314 249.919 C 11.314 251.714 11.572 253.332 11.918 254.83 L 19.713 253.032 Z M 19.313 250.033 C 19.545 241.895 16.032 234.871 13.336 228.996 L 6.065 232.332 C 8.983 238.691 11.484 243.903 11.316 249.805 L 19.313 250.033 Z M 13.344 229.013 C 9.796 221.182 6.373 214.588 5.558 207.066 L -2.396 207.928 C -1.407 217.054 2.789 225.101 6.057 232.314 L 13.344 229.013 Z M 5.558 207.071 C 5.378 205.385 4.989 203.754 4.692 202.448 C 4.375 201.052 4.143 199.949 4.067 198.888 L -3.912 199.457 C -3.788 201.204 -3.418 202.859 -3.109 204.221 C -2.779 205.673 -2.516 206.8 -2.396 207.922 L 5.558 207.071 Z M 4.065 198.858 C 3.573 192.619 5.859 187.808 10.842 184.431 L 6.354 177.809 C -1.093 182.856 -4.621 190.481 -3.91 199.487 L 4.065 198.858 Z M 10.873 184.411 C 16.195 180.732 21.945 177.509 27.848 174.306 L 24.032 167.275 C 18.107 170.49 12.028 173.887 6.324 177.83 L 10.873 184.411 Z M 27.837 174.312 C 34.26 170.852 40.883 167.687 47.534 164.461 L 44.042 157.263 C 37.461 160.455 30.652 163.708 24.043 167.269 L 27.837 174.312 Z M 47.534 164.461 C 54.122 161.264 60.515 158.267 66.933 155.256 L 63.537 148.013 C 57.124 151.021 50.686 154.04 44.042 157.263 L 47.534 164.461 Z M 66.902 155.271 C 74.201 151.924 81.189 148.575 88.408 145.606 L 85.366 138.207 C 77.951 141.256 70.703 144.727 63.568 147.999 L 66.902 155.271 Z M 88.411 145.605 C 91.584 144.298 94.932 143.276 98.357 142.628 L 96.869 134.767 C 92.876 135.523 89.007 136.708 85.364 138.208 L 88.411 145.605 Z M 98.369 142.625 C 100.798 142.158 103.3 141.873 105.983 141.569 C 108.612 141.271 111.424 140.955 114.207 140.419 L 112.696 132.563 C 110.267 133.03 107.765 133.316 105.082 133.62 C 102.452 133.918 99.641 134.234 96.858 134.77 L 98.369 142.625 Z M 114.204 140.42 C 124.484 138.45 133.504 133.416 139.325 123.824 L 132.486 119.673 C 128.083 126.93 121.265 130.922 112.699 132.563 L 114.204 140.42 Z M 139.325 123.824 C 145.572 113.536 153.545 104.789 163.167 97.569 L 158.365 91.17 C 147.939 98.993 139.271 108.499 132.487 119.672 L 139.325 123.824 Z M 163.196 97.546 C 173.075 89.988 184.076 84.131 195.77 79.313 L 192.723 71.916 C 180.56 76.927 168.906 83.105 158.335 91.192 L 163.196 97.546 Z M 195.671 79.353 C 196.637 78.985 197.597 78.673 198.734 78.285 C 199.819 77.915 201.02 77.489 202.204 76.956 L 198.92 69.661 C 198.099 70.031 197.196 70.357 196.15 70.714 C 195.157 71.053 193.962 71.443 192.822 71.877 L 195.671 79.353 Z M 202.352 76.886 C 203.604 76.259 204.386 75.294 204.79 74.755 C 205.009 74.463 205.208 74.167 205.342 73.969 C 205.496 73.741 205.586 73.61 205.667 73.501 L 199.266 68.703 C 199.047 68.995 198.848 69.29 198.715 69.488 C 198.56 69.716 198.471 69.847 198.389 69.956 C 198.311 70.06 198.298 70.066 198.338 70.026 C 198.383 69.983 198.526 69.854 198.773 69.731 L 202.352 76.886 Z M 204.452 67.629 C 204.456 67.632 204.443 67.625 204.409 67.602 C 204.375 67.58 204.33 67.548 204.266 67.503 C 204.201 67.456 204.132 67.406 204.041 67.339 C 203.957 67.277 203.85 67.199 203.74 67.12 C 203.387 66.868 202.541 66.261 201.461 65.952 L 199.262 73.644 C 199.14 73.609 199.049 73.572 198.994 73.548 C 198.938 73.523 198.907 73.505 198.903 73.503 C 198.899 73.5 198.911 73.507 198.945 73.53 C 198.979 73.552 199.025 73.584 199.089 73.629 C 199.154 73.676 199.223 73.726 199.314 73.793 C 199.398 73.855 199.505 73.933 199.615 74.012 C 199.83 74.165 200.132 74.375 200.481 74.574 L 204.452 67.629 Z M 201.262 65.901 C 195.322 64.529 189.978 61.964 184.921 58.404 L 180.316 64.945 C 186.086 69.008 192.369 72.058 199.462 73.696 L 201.262 65.901 Z M 184.941 58.418 C 175.455 51.653 165.78 45.201 156.145 38.875 L 151.754 45.562 C 161.365 51.872 170.937 58.257 180.296 64.931 L 184.941 58.418 Z M 156.139 38.871 C 154.432 37.754 152.621 37.025 150.983 36.465 C 150.161 36.184 149.338 35.931 148.577 35.699 C 147.797 35.461 147.087 35.245 146.394 35.014 L 143.863 42.603 C 144.673 42.873 145.491 43.121 146.24 43.35 C 147.008 43.585 147.714 43.802 148.395 44.035 C 149.765 44.503 150.86 44.977 151.76 45.566 L 156.139 38.871 Z M 146.333 34.994 C 144.616 34.452 142.814 34.429 141.067 35.145 C 139.444 35.811 138.238 36.966 137.328 38.072 L 143.505 43.156 C 143.739 42.872 143.911 42.705 144.024 42.612 C 144.132 42.523 144.157 42.524 144.102 42.547 C 144.035 42.574 143.945 42.595 143.86 42.596 C 143.785 42.598 143.797 42.583 143.923 42.623 L 146.333 34.994 Z M 137.216 38.214 C 135.602 40.368 132.21 41.396 129.353 39.296 L 124.615 45.742 C 131.582 50.863 139.819 48.08 143.617 43.013 L 137.216 38.214 Z M 129.347 39.292 C 126.116 36.927 124.469 33.848 124.469 30.384 L 116.469 30.384 C 116.469 36.748 119.632 42.094 124.621 45.747 L 129.347 39.292 Z M 124.468 30.455 C 124.531 26.911 123.661 23.909 121.727 21.438 C 119.88 19.078 117.344 17.572 114.813 16.416 L 111.489 23.693 C 113.568 24.642 114.742 25.493 115.426 26.368 C 116.023 27.131 116.506 28.241 116.469 30.313 L 124.468 30.455 Z M 114.798 16.409 C 112.032 15.16 109.34 13.454 107.014 11.485 L 101.845 17.591 C 104.732 20.035 108.054 22.141 111.504 23.699 L 114.798 16.409 Z M 107.024 11.494 C 104.392 9.251 101.253 6.537 97.04 5.05 L 94.377 12.593 C 96.981 13.513 99.054 15.212 101.835 17.583 L 107.024 11.494 Z M 97.076 5.063 C 96.715 4.931 96.278 4.655 95.46 3.927 L 90.143 9.905 C 91.129 10.782 92.497 11.91 94.341 12.581 L 97.076 5.063 Z M 95.325 3.812 C 95.313 3.803 95.273 3.765 95.229 3.692 C 95.185 3.617 95.156 3.541 95.144 3.482 C 95.13 3.422 95.144 3.429 95.132 3.506 C 95.119 3.589 95.071 3.766 94.925 3.966 L 88.473 -0.764 C 87.072 1.147 86.939 3.405 87.327 5.185 C 87.719 6.984 88.722 8.755 90.279 10.02 L 95.325 3.812 Z M 94.877 4.03 C 94.95 3.934 94.987 3.916 94.965 3.931 C 94.955 3.937 94.936 3.948 94.908 3.96 C 94.879 3.972 94.847 3.982 94.812 3.989 C 94.738 4.004 94.682 4 94.659 3.996 C 94.638 3.993 94.666 3.994 94.739 4.032 L 98.483 -3.037 C 96.917 -3.866 95.073 -4.233 93.198 -3.846 C 91.303 -3.456 89.693 -2.362 88.521 -0.828 L 94.877 4.03 Z M 94.737 4.031 C 103.557 8.709 113.233 10.938 121.933 13.285 L 124.016 5.562 C 114.873 3.095 106.305 1.112 98.485 -3.036 L 94.737 4.031 Z M 121.941 13.288 C 131.753 15.912 141.183 19.704 150.134 24.571 L 153.956 17.543 C 144.463 12.381 134.445 8.351 124.008 5.559 L 121.941 13.288 Z M 150.116 24.562 C 154.534 26.992 159.765 28.386 163.785 29.757 L 166.368 22.185 C 161.566 20.548 157.575 19.535 153.973 17.553 L 150.116 24.562 Z M 163.792 29.759 C 169.717 31.769 175.76 33.784 181.812 35.702 L 184.228 28.075 C 178.25 26.181 172.264 24.185 166.361 22.183 L 163.792 29.759 Z M 181.8 35.698 C 186.853 37.316 191.9 38.83 196.906 40.333 L 199.206 32.671 C 194.188 31.165 189.211 29.671 184.239 28.079 L 181.8 35.698 Z M 196.917 40.336 C 203.206 42.204 209.893 44.362 216.491 46.088 L 218.516 38.349 C 212.082 36.665 205.737 34.61 199.195 32.667 L 196.917 40.336 Z M 216.499 46.09 C 222.092 47.541 227.748 48.567 233.297 49.475 L 234.589 41.58 C 229.111 40.684 223.741 39.704 218.507 38.346 L 216.499 46.09 Z M 233.293 49.475 C 241.023 50.747 247.653 52.612 253.12 57.213 L 258.271 51.093 C 251.107 45.063 242.701 42.916 234.593 41.581 L 233.293 49.475 Z M 253.092 57.189 C 254.652 58.527 255.219 60.187 254.929 62.725 L 262.877 63.633 C 263.389 59.151 262.352 54.592 258.299 51.116 L 253.092 57.189 Z M 254.928 62.737 C 254.355 67.892 251.65 72.264 247.948 76.944 L 254.221 81.908 C 258.137 76.96 262.048 71.103 262.879 63.62 L 254.928 62.737 Z M 247.96 76.928 C 241.502 85.005 233.24 91.094 224.549 97.948 L 229.503 104.229 C 237.853 97.644 247.034 90.896 254.208 81.924 L 247.96 76.928 Z M 224.57 97.932 C 218.026 103.024 212.155 108.804 206.605 114.559 L 212.363 120.112 C 217.839 114.434 223.396 108.982 229.483 104.245 L 224.57 97.932 Z M 206.597 114.566 C 199.056 122.426 193.155 131.469 187.792 140.58 L 194.687 144.638 C 199.95 135.696 205.477 127.289 212.37 120.105 L 206.597 114.566 Z M 187.777 140.605 C 187.043 141.874 186.283 143.662 186.648 145.744 C 187.015 147.838 188.349 149.262 189.498 150.209 L 194.585 144.035 C 194.33 143.825 194.277 143.739 194.305 143.778 C 194.35 143.841 194.472 144.045 194.528 144.362 C 194.583 144.679 194.537 144.907 194.52 144.971 C 194.51 145.008 194.534 144.902 194.702 144.612 L 187.777 140.605 Z M 189.536 150.24 C 195.671 155.171 201.252 159.862 205.392 165.846 L 211.971 161.293 C 207.09 154.239 200.641 148.902 194.547 144.004 L 189.536 150.24 Z M 205.364 165.804 C 208.484 170.435 211.518 174.942 214.248 179.625 L 221.159 175.595 C 218.276 170.65 215.095 165.93 211.999 161.335 L 205.364 165.804 Z M 214.244 179.617 C 220.337 190.122 222.358 202.015 224.589 214.803 L 232.47 213.428 C 230.291 200.943 228.101 187.563 221.164 175.603 L 214.244 179.617 Z M 224.584 214.773 C 224.878 216.539 224.931 218.437 224.956 220.63 C 224.98 222.723 224.978 225.157 225.259 227.526 L 233.203 226.58 C 232.984 224.737 232.982 222.809 232.956 220.538 C 232.931 218.369 232.883 215.904 232.475 213.458 L 224.584 214.773 Z M 225.255 227.488 C 225.954 233.878 226.675 240.41 228.133 246.976 L 235.943 245.241 C 234.595 239.17 233.912 233.065 233.208 226.618 L 225.255 227.488 Z M 228.132 246.969 C 229.522 253.272 229.41 258.968 226.856 264.077 L 234.012 267.654 C 237.674 260.327 237.562 252.584 235.944 245.247 L 228.132 246.969 Z M 226.877 264.037 C 223.548 270.513 219.047 275.753 212.69 279.197 L 216.502 286.231 C 224.58 281.853 230.104 275.258 233.992 267.694 L 226.877 264.037 Z M 212.728 279.177 C 205.53 282.978 198.203 286.845 191.164 291.132 L 195.325 297.965 C 202.12 293.827 209.228 290.072 216.464 286.251 L 212.728 279.177 Z M 191.178 291.124 C 183.175 295.953 181.059 303.951 180.63 311.573 L 188.617 312.023 C 188.99 305.404 190.683 300.766 195.311 297.973 L 191.178 291.124 Z M 180.629 311.59 C 179.932 324.948 178.639 338.167 177.53 351.585 L 185.503 352.244 C 186.599 338.984 187.912 325.526 188.618 312.007 L 180.629 311.59 Z M 177.547 351.418 C 177.478 351.973 177.446 352.534 177.423 352.933 C 177.396 353.387 177.377 353.678 177.346 353.926 L 185.285 354.918 C 185.354 354.363 185.385 353.802 185.409 353.403 C 185.436 352.949 185.454 352.658 185.485 352.41 L 177.547 351.418 Z M 177.334 354.043 C 176.525 362.536 175.834 370.944 174.743 379.276 L 182.675 380.314 C 183.79 371.797 184.502 363.156 185.298 354.801 L 177.334 354.043 Z M 174.744 379.267 C 174.421 381.696 173.513 384.21 172.237 386.422 L 179.167 390.418 C 180.899 387.415 182.196 383.912 182.674 380.323 L 174.744 379.267 Z M 172.215 386.46 C 171.215 388.238 170.036 389.3 168.726 389.932 C 167.378 390.583 165.607 390.913 163.251 390.748 L 162.691 398.728 C 166.05 398.964 169.291 398.542 172.203 397.137 C 175.153 395.713 177.482 393.416 179.189 390.38 L 172.215 386.46 Z M 163.256 390.748 C 156.058 390.234 148.525 390.638 141.72 390.638 L 141.72 398.638 C 149.149 398.638 155.851 398.24 162.686 398.728 L 163.256 390.748 Z M 137.839 393.668 C 137.687 394.277 137.62 394.716 137.62 395.24 L 145.62 395.24 C 145.62 395.211 145.62 395.282 145.616 395.37 C 145.611 395.466 145.602 395.55 145.592 395.617 C 145.583 395.677 145.576 395.711 145.577 395.706 C 145.578 395.702 145.585 395.672 145.601 395.608 L 137.839 393.668 Z M 147.897 332.279 C 146.928 333.078 146.029 333.965 145.507 334.448 C 144.88 335.029 144.602 335.219 144.441 335.299 L 148.02 342.454 C 149.263 341.833 150.238 340.97 150.939 340.321 C 151.745 339.576 152.249 339.059 152.985 338.454 L 147.897 332.279 Z M 144.288 335.38 C 142.5 336.374 140.629 336.669 138.252 336.092 L 136.366 343.867 C 140.605 344.895 144.548 344.388 148.174 342.373 L 144.288 335.38 Z M 138.259 336.094 C 136.274 335.609 133.203 334.742 130.222 335.019 C 126.748 335.343 123.631 337.125 121.349 340.931 L 128.209 345.046 C 129.235 343.336 130.127 343.063 130.964 342.985 C 132.294 342.861 133.834 343.248 136.359 343.865 L 138.259 336.094 Z M 121.394 340.858 C 121.17 341.213 121.06 341.266 121.133 341.214 C 121.176 341.185 121.262 341.134 121.389 341.091 C 121.519 341.048 121.657 341.024 121.79 341.021 C 122.061 341.014 122.162 341.094 122.043 341.033 C 121.912 340.966 121.638 340.791 121.232 340.402 L 115.695 346.177 C 117.195 347.614 119.338 349.08 121.979 349.018 C 124.881 348.95 126.911 347.111 128.164 345.119 L 121.394 340.858 Z M 121.223 340.394 C 119.159 338.427 117.089 336.356 115.078 334.344 L 109.42 339.999 C 111.418 341.999 113.558 344.14 115.704 346.185 L 121.223 340.394 Z M 115.078 334.344 C 113.674 332.94 112.063 331.973 110.227 331.487 C 108.438 331.014 106.67 331.059 105.024 331.313 L 106.241 339.22 C 107.201 339.072 107.789 339.117 108.181 339.221 C 108.524 339.312 108.919 339.498 109.42 339.999 L 115.078 334.344 Z M 104.975 331.321 C 103.743 331.526 102.26 331.466 100.887 331.161 L 99.151 338.97 C 101.387 339.467 103.914 339.608 106.291 339.212 L 104.975 331.321 Z M 100.99 331.185 C 98.177 330.482 95.669 328.983 93.372 326.769 L 87.821 332.531 C 90.937 335.532 94.644 337.844 99.048 338.946 L 100.99 331.185 Z M 93.425 326.822 C 92.651 326.048 91.707 325.467 90.823 325.076 C 89.951 324.691 88.813 324.346 87.589 324.346 L 87.589 332.346 C 87.516 332.346 87.468 332.341 87.446 332.338 C 87.423 332.335 87.417 332.333 87.428 332.336 C 87.454 332.342 87.511 332.359 87.588 332.393 C 87.665 332.427 87.731 332.464 87.777 332.495 C 87.788 332.502 87.796 332.507 87.802 332.512 C 87.808 332.516 87.811 332.518 87.811 332.518 C 87.811 332.518 87.81 332.517 87.808 332.516 C 87.806 332.514 87.804 332.512 87.8 332.509 C 87.793 332.503 87.782 332.493 87.767 332.478 L 93.425 326.822 Z M 87.678 324.347 C 85.634 324.302 84.989 324.02 84.71 323.837 C 84.454 323.668 83.942 323.212 83.146 321.355 L 75.793 324.506 C 76.802 326.861 78.094 329.062 80.318 330.523 C 82.52 331.97 85.034 332.29 87.5 332.345 L 87.678 324.347 Z M 83.156 321.379 C 82.359 319.486 81.524 317.5 80.579 315.502 L 73.348 318.926 C 74.207 320.739 74.975 322.564 75.783 324.482 L 83.156 321.379 Z M 80.626 315.607 C 78.966 311.822 78.265 308.629 79.124 305.407 L 71.394 303.347 C 69.847 309.15 71.352 314.382 73.3 318.821 L 80.626 315.607 Z M 79.14 305.346 C 79.451 304.1 79.707 302.519 79.433 300.828 C 79.141 299.026 78.288 297.351 76.798 295.949 L 71.314 301.773 C 71.447 301.898 71.491 301.975 71.502 301.997 C 71.514 302.017 71.526 302.046 71.536 302.108 C 71.563 302.273 71.568 302.648 71.379 303.407 L 79.14 305.346 Z M 76.714 295.872 C 76.462 295.647 76.223 295.231 75.463 293.837 L 68.439 297.667 C 68.882 298.479 69.846 300.47 71.398 301.85 L 76.714 295.872 Z M 75.382 293.695 C 74.338 291.954 73.514 290.436 73.081 289.024 C 72.669 287.681 72.706 286.746 73.032 285.971 L 65.658 282.867 C 64.38 285.903 64.668 288.879 65.433 291.372 C 66.178 293.797 67.46 296.04 68.521 297.809 L 75.382 293.695 Z M 73.032 285.971 C 74.972 281.36 75.049 277.242 75.049 273.287 L 67.049 273.287 C 67.049 277.154 66.926 279.856 65.658 282.867 L 73.032 285.971 Z M 75.048 273.367 C 75.096 270.968 76.787 269.179 80.985 267.461 L 77.954 260.057 C 73.33 261.95 67.202 265.576 67.05 273.207 L 75.048 273.367 Z M 81.029 267.443 C 83.747 266.292 86.414 265.015 89.004 263.503 L 84.971 256.594 C 82.75 257.89 80.404 259.02 77.91 260.076 L 81.029 267.443 Z M 88.987 263.513 C 90.119 262.859 91.225 263 92.115 263.81 L 97.498 257.892 C 93.977 254.69 89.068 254.229 84.988 256.584 L 88.987 263.513 Z M 92.115 263.81 C 93.091 264.697 94.188 265.277 94.896 265.644 C 95.747 266.084 96.157 266.282 96.539 266.546 L 101.094 259.97 C 100.172 259.331 99.129 258.827 98.576 258.54 C 97.881 258.18 97.625 258.007 97.498 257.892 L 92.115 263.81 Z M 96.695 266.649 C 96.824 266.73 96.951 266.807 97.056 266.87 C 97.169 266.939 97.257 266.991 97.345 267.046 C 97.523 267.155 97.617 267.219 97.673 267.259 C 97.729 267.301 97.678 267.272 97.586 267.168 C 97.489 267.058 97.311 266.827 97.176 266.467 L 104.667 263.659 C 104.111 262.176 103.04 261.281 102.441 260.836 C 101.884 260.423 101.088 259.961 100.937 259.866 L 96.695 266.649 Z M 97.229 266.601 C 97.58 267.444 97.982 268.398 98.433 269.157 C 98.825 269.816 99.839 271.369 101.866 271.815 C 103.816 272.245 105.374 271.339 105.984 270.962 C 106.72 270.508 107.521 269.863 108.245 269.279 L 103.221 263.053 C 102.834 263.366 102.529 263.609 102.272 263.805 C 102.01 264.004 101.859 264.107 101.779 264.157 C 101.685 264.214 101.797 264.131 102.055 264.051 C 102.348 263.96 102.901 263.852 103.585 264.002 C 104.283 264.156 104.766 264.501 105.034 264.754 C 105.266 264.973 105.349 265.135 105.308 265.066 C 105.275 265.01 105.2 264.872 105.071 264.589 C 104.945 264.313 104.799 263.971 104.614 263.525 L 97.229 266.601 Z M 108.254 269.272 C 112.721 265.646 117.505 264.348 122.902 265.556 L 124.651 257.75 C 116.615 255.95 109.371 258.062 103.212 263.061 L 108.254 269.272 Z M 122.883 265.552 C 131.047 267.424 136.68 272.846 141.164 280.604 L 148.09 276.6 C 142.951 267.71 135.753 260.295 124.67 257.754 L 122.883 265.552 Z M 141.165 280.606 C 142.027 282.095 143.238 284.533 144.506 286.437 L 151.163 282 C 150.026 280.293 149.432 278.92 148.089 276.599 L 141.165 280.606 Z M 144.711 286.717 C 145.506 287.712 146.559 288.277 147.33 288.575 C 148.122 288.882 149.263 289.158 150.506 288.981 L 149.374 281.061 C 149.681 281.017 149.898 281.042 149.994 281.057 C 150.1 281.074 150.172 281.097 150.219 281.115 C 150.266 281.133 150.339 281.166 150.439 281.232 C 150.524 281.288 150.732 281.436 150.959 281.72 L 144.711 286.717 Z M 150.91 288.901 C 152.201 288.579 152.976 287.754 153.253 287.44 C 153.622 287.021 153.892 286.584 154.08 286.232 C 154.443 285.554 154.773 284.681 154.902 283.781 L 146.982 282.65 C 146.993 282.577 147.004 282.528 147.01 282.506 C 147.016 282.482 147.02 282.471 147.02 282.47 C 147.021 282.468 147.02 282.469 147.02 282.471 C 147.019 282.473 147.021 282.468 147.027 282.456 C 147.028 282.455 147.091 282.331 147.25 282.151 C 147.333 282.057 147.489 281.894 147.726 281.719 C 147.954 281.552 148.372 281.29 148.969 281.14 L 150.91 288.901 Z M 154.899 283.802 C 155.705 278.36 156.548 273.473 158.586 269.041 L 151.318 265.699 C 148.744 271.295 147.783 277.24 146.985 282.63 L 154.899 283.802 Z M 158.591 269.03 C 160.505 264.835 162.963 261.394 166.152 258.875 L 161.194 252.597 C 156.764 256.096 153.609 260.678 151.313 265.709 L 158.591 269.03 Z M 166.117 258.903 C 174.058 252.773 178.184 244.604 179.932 235.423 L 172.073 233.927 C 170.613 241.596 167.321 247.867 161.229 252.57 L 166.117 258.903 Z M 179.924 235.466 C 182.488 222.752 178.851 211.226 173.084 200.841 L 166.09 204.725 C 171.35 214.197 174.129 223.732 172.082 233.884 L 179.924 235.466 Z M 173.054 200.788 C 171.023 197.258 167.849 192.831 161.64 192.092 L 160.694 200.035 C 162.906 200.299 164.342 201.688 166.12 204.778 L 173.054 200.788 Z M 161.634 192.091 C 159.625 191.854 157.571 191.861 155.719 191.97 L 156.189 199.956 C 157.745 199.865 159.301 199.871 160.699 200.036 L 161.634 192.091 Z M 155.827 191.965 C 146.368 192.267 137.719 192.193 129.843 188.611 L 126.531 195.894 C 136.298 200.335 146.695 200.261 156.082 199.961 L 155.827 191.965 Z M 129.826 188.604 C 127.695 187.646 125.62 186.35 123.407 184.845 C 121.299 183.412 118.861 181.641 116.488 180.144 L 112.22 186.91 C 114.457 188.322 116.48 189.81 118.909 191.461 C 121.232 193.04 123.768 194.652 126.548 195.901 L 129.826 188.604 Z M 116.474 180.136 C 115.02 179.226 112.751 178.538 110.579 179.021 L 112.315 186.83 C 112.233 186.848 112.17 186.856 112.127 186.86 C 112.085 186.863 112.057 186.863 112.045 186.862 C 112.032 186.862 112.03 186.861 112.038 186.862 C 112.046 186.863 112.06 186.866 112.08 186.87 C 112.121 186.879 112.167 186.893 112.206 186.909 C 112.225 186.916 112.237 186.922 112.244 186.925 C 112.25 186.929 112.246 186.927 112.233 186.919 L 116.474 180.136 Z M 110.622 179.011 C 106.765 179.824 102.622 181.008 99.173 181.847 L 101.065 189.62 C 105.035 188.654 108.51 187.632 112.271 186.84 L 110.622 179.011 Z M 99.159 181.851 C 90.469 184 81.246 185.879 72.321 188.517 L 74.589 196.189 C 83.306 193.612 91.927 191.88 101.08 189.617 L 99.159 181.851 Z M 72.345 188.51 C 62.497 191.354 52.84 194.811 43.284 198.098 L 45.886 205.663 C 55.577 202.33 64.966 198.968 74.565 196.196 L 72.345 188.51 Z M 43.218 198.121 C 40.677 199.046 38.059 200.631 36.313 201.547 L 40.026 208.633 C 42.49 207.341 44.082 206.32 45.953 205.639 L 43.218 198.121 Z M 36.253 201.578 C 35.161 202.174 33.759 203.306 33.274 205.248 C 32.786 207.199 33.492 208.893 34.239 210.015 L 40.897 205.579 C 40.842 205.498 41.297 206.139 41.035 207.188 C 40.912 207.682 40.673 208.05 40.459 208.286 C 40.26 208.505 40.099 208.593 40.086 208.601 L 36.253 201.578 Z M 34.195 209.947 C 38.585 216.835 42.394 223.409 44.328 230.688 L 52.06 228.633 C 49.784 220.067 45.373 212.6 40.941 205.647 L 34.195 209.947 Z M 44.341 230.737 C 46.312 237.792 48.342 244.177 48.711 250.552 L 56.698 250.089 C 56.265 242.624 53.885 235.169 52.046 228.585 L 44.341 230.737 Z M 48.713 250.572 C 49.295 259.801 48.519 269.091 48.008 278.896 L 55.998 279.312 C 56.49 269.861 57.317 259.895 56.697 250.068 L 48.713 250.572 Z M 48.007 278.932 C 47.599 288.405 46.727 297.141 46.204 306.87 L 54.193 307.299 C 54.672 298.375 55.605 288.457 55.999 279.276 L 48.007 278.932 Z M 46.206 306.846 C 45.964 310.899 46.776 314.637 48.72 317.845 C 50.659 321.045 53.567 323.46 57.104 325.14 L 60.535 317.913 C 58.158 316.784 56.555 315.339 55.562 313.699 C 54.574 312.069 54.032 309.99 54.192 307.323 L 46.206 306.846 Z M 57.03 325.104 C 59.632 326.405 61.326 328.212 62.338 330.671 L 69.736 327.626 C 67.941 323.266 64.824 320.057 60.609 317.949 L 57.03 325.104 Z M 62.328 330.646 C 63.26 332.956 63.649 334.881 63.496 336.507 C 63.355 337.999 62.733 339.544 60.995 341.174 L 66.468 347.009 C 69.541 344.126 71.125 340.807 71.46 337.26 C 71.783 333.846 70.919 330.556 69.746 327.651 L 62.328 330.646 Z M 60.966 341.202 C 58.397 343.66 55.721 347.079 54.654 351.085 L 62.384 353.145 C 62.92 351.133 64.455 348.936 66.497 346.982 L 60.966 341.202 Z M 54.654 351.085 C 53.32 356.089 53.206 361.559 52.923 366.001 L 60.907 366.511 C 61.225 361.525 61.312 357.167 62.384 353.145 L 54.654 351.085 Z M 52.927 365.949 C 52.769 368 53.186 370.102 54.583 371.863 C 55.926 373.556 57.794 374.45 59.583 374.932 L 61.664 367.207 C 60.848 366.987 60.761 366.778 60.851 366.891 C 60.897 366.95 60.915 367.005 60.915 367.004 C 60.911 366.988 60.88 366.858 60.903 366.563 L 52.927 365.949 Z M 59.5 374.909 C 63.342 376.034 67.797 377.538 72.04 378.65 L 74.068 370.911 C 69.89 369.817 66.126 368.513 61.748 367.231 L 59.5 374.909 Z M 72.05 378.652 C 77.433 380.049 83.023 381.502 88.747 382.439 L 90.04 374.544 C 84.737 373.676 79.501 372.32 74.058 370.909 L 72.05 378.652 Z M 88.747 382.439 C 95.122 383.482 101.242 382.41 106.983 380.351 L 104.282 372.821 C 99.398 374.572 94.692 375.305 90.04 374.544 L 88.747 382.439 Z M 106.959 380.359 C 114.36 377.758 121.487 375.879 129.307 373.375 L 126.867 365.756 C 119.651 368.066 111.741 370.198 104.306 372.812 L 106.959 380.359 Z M 129.252 373.392 C 131.648 372.663 134.013 371.83 136.263 371.051 C 138.544 370.261 140.726 369.518 142.908 368.901 L 140.732 361.203 C 138.303 361.89 135.924 362.702 133.645 363.492 C 131.333 364.292 129.137 365.064 126.922 365.739 L 129.252 373.392 Z M 142.963 368.886 C 145.335 368.179 147.816 367.286 149.616 365.326 C 151.489 363.285 152.083 360.71 152.405 358.127 L 144.467 357.135 C 144.188 359.366 143.829 359.799 143.723 359.915 C 143.543 360.111 143.017 360.522 140.678 361.219 L 142.963 368.886 Z M 152.404 358.137 C 152.99 353.541 153.712 348.675 154.218 343.913 L 146.263 343.067 C 145.767 347.732 145.085 352.293 144.468 357.125 L 152.404 358.137 Z M 154.197 344.076 C 154.656 340.98 154.441 337.782 154.441 335.366 L 146.441 335.366 C 146.441 338.567 146.627 340.585 146.284 342.904 L 154.197 344.076 Z" fill="currentColor" fill-rule="nonzero"></path>
</svg>