<svg xmlns="http://www.w3.org/2000/svg" width="129.584" height="131.040" viewBox="0 0 129.584 131.040" fill="none">
  <path d="M 64.792 131.04 C 52.537 131.04 41.496 128.371 31.668 123.032 C 21.84 117.572 14.075 109.867 8.372 99.918 C 2.791 89.969 0 78.503 0 65.52 C 0 52.416 2.791 40.95 8.372 31.122 C 14.075 21.173 21.84 13.529 31.668 8.19 C 41.496 2.73 52.537 0 64.792 0 C 77.047 0 88.088 2.73 97.916 8.19 C 107.744 13.529 115.449 21.173 121.03 31.122 C 126.733 40.95 129.584 52.416 129.584 65.52 C 129.584 78.503 126.733 89.969 121.03 99.918 C 115.449 109.867 107.744 117.572 97.916 123.032 C 88.088 128.371 77.047 131.04 64.792 131.04 Z M 64.792 119.392 C 74.62 119.392 83.356 117.269 91 113.022 C 98.765 108.775 104.832 102.648 109.2 94.64 C 113.689 86.511 115.934 76.804 115.934 65.52 C 115.934 54.115 113.629 44.347 109.018 36.218 C 104.529 28.089 98.341 21.961 90.454 17.836 C 82.689 13.711 74.013 11.648 64.428 11.648 C 54.721 11.648 45.985 13.771 38.22 18.018 C 30.576 22.265 24.57 28.453 20.202 36.582 C 15.834 44.711 13.65 54.357 13.65 65.52 C 13.65 76.804 15.834 86.511 20.202 94.64 C 24.691 102.648 30.758 108.775 38.402 113.022 C 46.167 117.269 54.964 119.392 64.792 119.392 Z" fill="currentColor" fill-rule="nonzero"></path>
  <path d="M 31.668 123.032 L 31.182 123.906 L 31.191 123.911 L 31.668 123.032 Z M 8.372 99.918 L 7.5 100.407 L 7.504 100.415 L 8.372 99.918 Z M 8.372 31.122 L 7.504 30.625 L 7.502 30.628 L 8.372 31.122 Z M 31.668 8.19 L 32.145 9.069 L 32.154 9.064 L 31.668 8.19 Z M 97.916 8.19 L 97.43 9.064 L 97.439 9.069 L 97.916 8.19 Z M 121.03 31.122 L 120.158 31.611 L 120.161 31.618 L 120.165 31.624 L 121.03 31.122 Z M 121.03 99.918 L 120.162 99.421 L 120.158 99.429 L 121.03 99.918 Z M 97.916 123.032 L 98.393 123.911 L 98.402 123.906 L 97.916 123.032 Z M 91 113.022 L 90.52 112.145 L 90.514 112.148 L 91 113.022 Z M 109.2 94.64 L 108.325 94.157 L 108.322 94.161 L 109.2 94.64 Z M 109.018 36.218 L 108.143 36.701 L 108.148 36.711 L 109.018 36.218 Z M 90.454 17.836 L 89.985 18.719 L 89.99 18.722 L 90.454 17.836 Z M 38.22 18.018 L 37.74 17.141 L 37.734 17.144 L 38.22 18.018 Z M 20.202 36.582 L 21.083 37.055 L 21.083 37.055 L 20.202 36.582 Z M 20.202 94.64 L 19.321 95.113 L 19.325 95.121 L 19.33 95.129 L 20.202 94.64 Z M 38.402 113.022 L 37.916 113.896 L 37.922 113.899 L 38.402 113.022 Z M 64.792 130.04 C 52.688 130.04 41.813 127.405 32.145 122.153 L 31.191 123.911 C 41.179 129.336 52.387 132.04 64.792 132.04 L 64.792 130.04 Z M 32.154 122.158 C 22.488 116.788 14.854 109.215 9.24 99.421 L 7.504 100.415 C 13.296 110.519 21.192 118.356 31.182 123.906 L 32.154 122.158 Z M 9.244 99.429 C 3.758 89.648 1 78.355 1 65.52 L -1 65.52 C -1 78.65 1.824 90.289 7.5 100.407 L 9.244 99.429 Z M 1 65.52 C 1 52.561 3.759 41.271 9.242 31.616 L 7.502 30.628 C 1.823 40.629 -1 52.271 -1 65.52 L 1 65.52 Z M 9.24 31.619 C 14.853 21.827 22.485 14.317 32.145 9.069 L 31.191 7.311 C 21.195 12.741 13.297 20.519 7.504 30.625 L 9.24 31.619 Z M 32.154 9.064 C 41.82 3.694 52.692 1 64.792 1 L 64.792 -1 C 52.383 -1 41.172 1.766 31.182 7.316 L 32.154 9.064 Z M 64.792 1 C 76.892 1 87.764 3.694 97.43 9.064 L 98.402 7.316 C 88.412 1.766 77.201 -1 64.792 -1 L 64.792 1 Z M 97.439 9.069 C 107.098 14.316 114.667 21.823 120.158 31.611 L 121.902 30.633 C 116.23 20.522 108.39 12.742 98.393 7.311 L 97.439 9.069 Z M 120.165 31.624 C 125.766 41.277 128.584 52.565 128.584 65.52 L 130.584 65.52 C 130.584 52.267 127.699 40.623 121.895 30.62 L 120.165 31.624 Z M 128.584 65.52 C 128.584 78.352 125.767 89.642 120.162 99.421 L 121.898 100.415 C 127.698 90.295 130.584 78.654 130.584 65.52 L 128.584 65.52 Z M 120.158 99.429 C 114.666 109.219 107.094 116.789 97.43 122.158 L 98.402 123.906 C 108.394 118.355 116.232 110.516 121.902 100.407 L 120.158 99.429 Z M 97.439 122.153 C 87.771 127.405 76.896 130.04 64.792 130.04 L 64.792 132.04 C 77.197 132.04 88.405 129.336 98.393 123.911 L 97.439 122.153 Z M 64.792 120.392 C 74.769 120.392 83.675 118.235 91.486 113.896 L 90.514 112.148 C 83.037 116.302 74.471 118.392 64.792 118.392 L 64.792 120.392 Z M 91.48 113.899 C 99.419 109.558 105.621 103.29 110.078 95.119 L 108.322 94.161 C 104.043 102.006 98.112 107.993 90.52 112.145 L 91.48 113.899 Z M 110.075 95.123 C 114.662 86.817 116.934 76.937 116.934 65.52 L 114.934 65.52 C 114.934 76.671 112.716 86.204 108.325 94.157 L 110.075 95.123 Z M 116.934 65.52 C 116.934 53.98 114.601 44.034 109.888 35.725 L 108.148 36.711 C 112.657 44.66 114.934 54.25 114.934 65.52 L 116.934 65.52 Z M 109.893 35.735 C 105.314 27.441 98.986 21.17 90.917 16.95 L 89.99 18.722 C 97.696 22.752 103.744 28.736 108.143 36.701 L 109.893 35.735 Z M 90.923 16.953 C 83.001 12.744 74.162 10.648 64.428 10.648 L 64.428 12.648 C 73.865 12.648 82.377 14.677 89.985 18.719 L 90.923 16.953 Z M 64.428 10.648 C 54.57 10.648 45.667 12.806 37.74 17.141 L 38.7 18.895 C 46.304 14.737 54.872 12.648 64.428 12.648 L 64.428 10.648 Z M 37.734 17.144 C 29.913 21.489 23.774 27.82 19.321 36.109 L 21.083 37.055 C 25.366 29.085 31.239 23.041 38.706 18.892 L 37.734 17.144 Z M 19.321 36.109 C 14.86 44.411 12.65 54.227 12.65 65.52 L 14.65 65.52 C 14.65 54.488 16.808 45.012 21.083 37.055 L 19.321 36.109 Z M 12.65 65.52 C 12.65 76.933 14.859 86.809 19.321 95.113 L 21.083 94.167 C 16.809 86.212 14.65 76.675 14.65 65.52 L 12.65 65.52 Z M 19.33 95.129 C 23.905 103.29 30.102 109.555 37.916 113.896 L 38.888 112.148 C 31.414 107.996 25.478 102.006 21.074 94.151 L 19.33 95.129 Z M 37.922 113.899 C 45.85 118.235 54.815 120.392 64.792 120.392 L 64.792 118.392 C 55.113 118.392 46.484 116.302 38.882 112.145 L 37.922 113.899 Z" fill="currentColor" fill-rule="nonzero"></path>
</svg>